ISO-10303-21;
HEADER;
/* Generated by software containing ST-Developer
 * from STEP Tools, Inc. (www.steptools.com) 
 */

FILE_DESCRIPTION(
/* description */ (''),
/* implementation_level */ '2;1');

FILE_NAME(
/* name */ 'Desk Org(STEP).step',
/* time_stamp */ '2026-10-07T16:41:29+05:30',
/* author */ (''),
/* organization */ (''),
/* preprocessor_version */ 'ST-DEVELOPER v20.2',
/* originating_system */ 'Autodesk Translation Framework v15.15.0.0',
/* authorisation */ '');

FILE_SCHEMA (('AUTOMOTIVE_DESIGN { 1 0 10303 214 3 1 1 }'));
ENDSEC;

DATA;
#10=MECHANICAL_DESIGN_GEOMETRIC_PRESENTATION_REPRESENTATION('',(#13,#14,
#15,#16),#1495);
#11=SHAPE_REPRESENTATION_RELATIONSHIP('SRR','None',#1502,#12);
#12=ADVANCED_BREP_SHAPE_REPRESENTATION('',(#17,#18,#19,#20),#1494);
#13=STYLED_ITEM('',(#1511),#17);
#14=STYLED_ITEM('',(#1511),#18);
#15=STYLED_ITEM('',(#1511),#19);
#16=STYLED_ITEM('',(#1511),#20);
#17=MANIFOLD_SOLID_BREP('Body2',#892);
#18=MANIFOLD_SOLID_BREP('Body4',#893);
#19=MANIFOLD_SOLID_BREP('Body5',#894);
#20=MANIFOLD_SOLID_BREP('Body6',#895);
#21=TOROIDAL_SURFACE('',#917,27.5,5.);
#22=TOROIDAL_SURFACE('',#930,33.,2.);
#23=TOROIDAL_SURFACE('',#940,34.5,2.);
#24=PLANE('',#912);
#25=PLANE('',#916);
#26=PLANE('',#925);
#27=PLANE('',#926);
#28=PLANE('',#928);
#29=PLANE('',#944);
#30=PLANE('',#945);
#31=PLANE('',#946);
#32=PLANE('',#947);
#33=PLANE('',#948);
#34=PLANE('',#949);
#35=PLANE('',#950);
#36=PLANE('',#951);
#37=PLANE('',#952);
#38=PLANE('',#953);
#39=PLANE('',#954);
#40=PLANE('',#955);
#41=PLANE('',#956);
#42=PLANE('',#957);
#43=PLANE('',#958);
#44=PLANE('',#959);
#45=PLANE('',#960);
#46=PLANE('',#961);
#47=PLANE('',#962);
#48=PLANE('',#963);
#49=PLANE('',#964);
#50=PLANE('',#965);
#51=PLANE('',#966);
#52=PLANE('',#967);
#53=PLANE('',#971);
#54=PLANE('',#972);
#55=PLANE('',#973);
#56=PLANE('',#974);
#57=PLANE('',#975);
#58=PLANE('',#976);
#59=PLANE('',#980);
#60=PLANE('',#981);
#61=PLANE('',#982);
#62=PLANE('',#983);
#63=PLANE('',#984);
#64=PLANE('',#985);
#65=FACE_OUTER_BOUND('',#116,.T.);
#66=FACE_OUTER_BOUND('',#117,.T.);
#67=FACE_OUTER_BOUND('',#118,.T.);
#68=FACE_OUTER_BOUND('',#119,.T.);
#69=FACE_OUTER_BOUND('',#120,.T.);
#70=FACE_OUTER_BOUND('',#121,.T.);
#71=FACE_OUTER_BOUND('',#122,.T.);
#72=FACE_OUTER_BOUND('',#123,.T.);
#73=FACE_OUTER_BOUND('',#124,.T.);
#74=FACE_OUTER_BOUND('',#125,.T.);
#75=FACE_OUTER_BOUND('',#126,.T.);
#76=FACE_OUTER_BOUND('',#127,.T.);
#77=FACE_OUTER_BOUND('',#128,.T.);
#78=FACE_OUTER_BOUND('',#129,.T.);
#79=FACE_OUTER_BOUND('',#130,.T.);
#80=FACE_OUTER_BOUND('',#131,.T.);
#81=FACE_OUTER_BOUND('',#132,.T.);
#82=FACE_OUTER_BOUND('',#133,.T.);
#83=FACE_OUTER_BOUND('',#134,.T.);
#84=FACE_OUTER_BOUND('',#135,.T.);
#85=FACE_OUTER_BOUND('',#136,.T.);
#86=FACE_OUTER_BOUND('',#137,.T.);
#87=FACE_OUTER_BOUND('',#138,.T.);
#88=FACE_OUTER_BOUND('',#139,.T.);
#89=FACE_OUTER_BOUND('',#140,.T.);
#90=FACE_OUTER_BOUND('',#141,.T.);
#91=FACE_OUTER_BOUND('',#142,.T.);
#92=FACE_OUTER_BOUND('',#143,.T.);
#93=FACE_OUTER_BOUND('',#144,.T.);
#94=FACE_OUTER_BOUND('',#145,.T.);
#95=FACE_OUTER_BOUND('',#146,.T.);
#96=FACE_OUTER_BOUND('',#147,.T.);
#97=FACE_OUTER_BOUND('',#148,.T.);
#98=FACE_OUTER_BOUND('',#149,.T.);
#99=FACE_OUTER_BOUND('',#150,.T.);
#100=FACE_OUTER_BOUND('',#151,.T.);
#101=FACE_OUTER_BOUND('',#152,.T.);
#102=FACE_OUTER_BOUND('',#153,.T.);
#103=FACE_OUTER_BOUND('',#154,.T.);
#104=FACE_OUTER_BOUND('',#155,.T.);
#105=FACE_OUTER_BOUND('',#156,.T.);
#106=FACE_OUTER_BOUND('',#157,.T.);
#107=FACE_OUTER_BOUND('',#158,.T.);
#108=FACE_OUTER_BOUND('',#159,.T.);
#109=FACE_OUTER_BOUND('',#160,.T.);
#110=FACE_OUTER_BOUND('',#161,.T.);
#111=FACE_OUTER_BOUND('',#162,.T.);
#112=FACE_OUTER_BOUND('',#163,.T.);
#113=FACE_OUTER_BOUND('',#164,.T.);
#114=FACE_OUTER_BOUND('',#165,.T.);
#115=FACE_OUTER_BOUND('',#166,.T.);
#116=EDGE_LOOP('',(#588,#589,#590,#591));
#117=EDGE_LOOP('',(#592,#593,#594,#595,#596,#597));
#118=EDGE_LOOP('',(#598,#599,#600,#601));
#119=EDGE_LOOP('',(#602,#603,#604,#605));
#120=EDGE_LOOP('',(#606,#607,#608,#609,#610));
#121=EDGE_LOOP('',(#611,#612,#613,#614,#615,#616));
#122=EDGE_LOOP('',(#617));
#123=EDGE_LOOP('',(#618,#619,#620,#621,#622));
#124=EDGE_LOOP('',(#623,#624,#625,#626,#627,#628,#629,#630));
#125=EDGE_LOOP('',(#631,#632,#633,#634,#635,#636));
#126=EDGE_LOOP('',(#637,#638,#639,#640,#641,#642,#643,#644,#645,#646,#647,
#648,#649,#650));
#127=EDGE_LOOP('',(#651,#652,#653,#654,#655,#656));
#128=EDGE_LOOP('',(#657,#658,#659,#660));
#129=EDGE_LOOP('',(#661,#662,#663,#664,#665,#666,#667,#668));
#130=EDGE_LOOP('',(#669,#670,#671,#672));
#131=EDGE_LOOP('',(#673,#674,#675,#676));
#132=EDGE_LOOP('',(#677,#678,#679,#680));
#133=EDGE_LOOP('',(#681,#682,#683,#684,#685));
#134=EDGE_LOOP('',(#686,#687,#688,#689,#690));
#135=EDGE_LOOP('',(#691,#692,#693,#694,#695));
#136=EDGE_LOOP('',(#696,#697,#698,#699,#700,#701,#702,#703,#704,#705,#706));
#137=EDGE_LOOP('',(#707,#708,#709));
#138=EDGE_LOOP('',(#710,#711,#712,#713));
#139=EDGE_LOOP('',(#714,#715,#716,#717));
#140=EDGE_LOOP('',(#718,#719,#720,#721));
#141=EDGE_LOOP('',(#722,#723,#724));
#142=EDGE_LOOP('',(#725,#726,#727,#728,#729));
#143=EDGE_LOOP('',(#730,#731,#732,#733,#734,#735,#736,#737));
#144=EDGE_LOOP('',(#738,#739,#740,#741));
#145=EDGE_LOOP('',(#742,#743,#744,#745));
#146=EDGE_LOOP('',(#746,#747,#748,#749));
#147=EDGE_LOOP('',(#750,#751,#752,#753));
#148=EDGE_LOOP('',(#754,#755,#756,#757));
#149=EDGE_LOOP('',(#758,#759,#760,#761));
#150=EDGE_LOOP('',(#762,#763,#764,#765));
#151=EDGE_LOOP('',(#766,#767,#768,#769));
#152=EDGE_LOOP('',(#770,#771,#772,#773));
#153=EDGE_LOOP('',(#774,#775,#776,#777));
#154=EDGE_LOOP('',(#778,#779,#780,#781));
#155=EDGE_LOOP('',(#782,#783,#784,#785,#786));
#156=EDGE_LOOP('',(#787,#788,#789,#790));
#157=EDGE_LOOP('',(#791,#792,#793,#794,#795));
#158=EDGE_LOOP('',(#796,#797,#798,#799));
#159=EDGE_LOOP('',(#800,#801,#802,#803));
#160=EDGE_LOOP('',(#804,#805,#806,#807));
#161=EDGE_LOOP('',(#808,#809,#810,#811));
#162=EDGE_LOOP('',(#812,#813,#814,#815,#816));
#163=EDGE_LOOP('',(#817,#818,#819,#820));
#164=EDGE_LOOP('',(#821,#822,#823,#824));
#165=EDGE_LOOP('',(#825,#826,#827,#828,#829));
#166=EDGE_LOOP('',(#830,#831,#832,#833));
#167=LINE('',#1245,#264);
#168=LINE('',#1248,#265);
#169=LINE('',#1251,#266);
#170=LINE('',#1253,#267);
#171=LINE('',#1255,#268);
#172=LINE('',#1257,#269);
#173=LINE('',#1258,#270);
#174=LINE('',#1264,#271);
#175=LINE('',#1267,#272);
#176=LINE('',#1270,#273);
#177=LINE('',#1272,#274);
#178=LINE('',#1273,#275);
#179=LINE('',#1286,#276);
#180=LINE('',#1293,#277);
#181=LINE('',#1295,#278);
#182=LINE('',#1296,#279);
#183=LINE('',#1299,#280);
#184=LINE('',#1301,#281);
#185=LINE('',#1303,#282);
#186=LINE('',#1305,#283);
#187=LINE('',#1309,#284);
#188=LINE('',#1310,#285);
#189=LINE('',#1322,#286);
#190=LINE('',#1326,#287);
#191=LINE('',#1330,#288);
#192=LINE('',#1336,#289);
#193=LINE('',#1339,#290);
#194=LINE('',#1341,#291);
#195=LINE('',#1343,#292);
#196=LINE('',#1345,#293);
#197=LINE('',#1347,#294);
#198=LINE('',#1349,#295);
#199=LINE('',#1350,#296);
#200=LINE('',#1352,#297);
#201=LINE('',#1353,#298);
#202=LINE('',#1354,#299);
#203=LINE('',#1357,#300);
#204=LINE('',#1359,#301);
#205=LINE('',#1360,#302);
#206=LINE('',#1363,#303);
#207=LINE('',#1365,#304);
#208=LINE('',#1366,#305);
#209=LINE('',#1368,#306);
#210=LINE('',#1370,#307);
#211=LINE('',#1371,#308);
#212=LINE('',#1374,#309);
#213=LINE('',#1375,#310);
#214=LINE('',#1376,#311);
#215=LINE('',#1379,#312);
#216=LINE('',#1380,#313);
#217=LINE('',#1381,#314);
#218=LINE('',#1383,#315);
#219=LINE('',#1385,#316);
#220=LINE('',#1388,#317);
#221=LINE('',#1390,#318);
#222=LINE('',#1392,#319);
#223=LINE('',#1396,#320);
#224=LINE('',#1397,#321);
#225=LINE('',#1399,#322);
#226=LINE('',#1405,#323);
#227=LINE('',#1407,#324);
#228=LINE('',#1409,#325);
#229=LINE('',#1410,#326);
#230=LINE('',#1413,#327);
#231=LINE('',#1415,#328);
#232=LINE('',#1416,#329);
#233=LINE('',#1419,#330);
#234=LINE('',#1421,#331);
#235=LINE('',#1422,#332);
#236=LINE('',#1424,#333);
#237=LINE('',#1425,#334);
#238=LINE('',#1433,#335);
#239=LINE('',#1436,#336);
#240=LINE('',#1439,#337);
#241=LINE('',#1441,#338);
#242=LINE('',#1442,#339);
#243=LINE('',#1445,#340);
#244=LINE('',#1447,#341);
#245=LINE('',#1448,#342);
#246=LINE('',#1451,#343);
#247=LINE('',#1452,#344);
#248=LINE('',#1455,#345);
#249=LINE('',#1456,#346);
#250=LINE('',#1458,#347);
#251=LINE('',#1465,#348);
#252=LINE('',#1468,#349);
#253=LINE('',#1471,#350);
#254=LINE('',#1473,#351);
#255=LINE('',#1474,#352);
#256=LINE('',#1477,#353);
#257=LINE('',#1479,#354);
#258=LINE('',#1480,#355);
#259=LINE('',#1483,#356);
#260=LINE('',#1484,#357);
#261=LINE('',#1487,#358);
#262=LINE('',#1488,#359);
#263=LINE('',#1490,#360);
#264=VECTOR('',#992,10.);
#265=VECTOR('',#995,10.);
#266=VECTOR('',#998,10.);
#267=VECTOR('',#999,10.);
#268=VECTOR('',#1000,10.);
#269=VECTOR('',#1001,10.);
#270=VECTOR('',#1002,10.);
#271=VECTOR('',#1007,10.);
#272=VECTOR('',#1010,10.);
#273=VECTOR('',#1013,10.);
#274=VECTOR('',#1014,10.);
#275=VECTOR('',#1015,10.);
#276=VECTOR('',#1030,32.5);
#277=VECTOR('',#1039,10.);
#278=VECTOR('',#1040,10.);
#279=VECTOR('',#1041,10.);
#280=VECTOR('',#1044,10.);
#281=VECTOR('',#1045,10.);
#282=VECTOR('',#1046,10.);
#283=VECTOR('',#1047,10.);
#284=VECTOR('',#1050,10.);
#285=VECTOR('',#1051,10.);
#286=VECTOR('',#1066,35.);
#287=VECTOR('',#1069,10.);
#288=VECTOR('',#1072,10.);
#289=VECTOR('',#1081,10.);
#290=VECTOR('',#1084,10.);
#291=VECTOR('',#1087,10.);
#292=VECTOR('',#1088,10.);
#293=VECTOR('',#1089,10.);
#294=VECTOR('',#1090,10.);
#295=VECTOR('',#1091,10.);
#296=VECTOR('',#1092,10.);
#297=VECTOR('',#1095,10.);
#298=VECTOR('',#1096,10.);
#299=VECTOR('',#1097,10.);
#300=VECTOR('',#1100,10.);
#301=VECTOR('',#1101,10.);
#302=VECTOR('',#1102,10.);
#303=VECTOR('',#1105,10.);
#304=VECTOR('',#1106,10.);
#305=VECTOR('',#1107,10.);
#306=VECTOR('',#1110,10.);
#307=VECTOR('',#1111,10.);
#308=VECTOR('',#1112,10.);
#309=VECTOR('',#1115,10.);
#310=VECTOR('',#1116,10.);
#311=VECTOR('',#1117,10.);
#312=VECTOR('',#1120,10.);
#313=VECTOR('',#1121,10.);
#314=VECTOR('',#1122,10.);
#315=VECTOR('',#1125,10.);
#316=VECTOR('',#1128,10.);
#317=VECTOR('',#1133,10.);
#318=VECTOR('',#1136,10.);
#319=VECTOR('',#1139,10.);
#320=VECTOR('',#1144,10.);
#321=VECTOR('',#1145,10.);
#322=VECTOR('',#1148,10.);
#323=VECTOR('',#1155,10.);
#324=VECTOR('',#1156,10.);
#325=VECTOR('',#1157,10.);
#326=VECTOR('',#1158,10.);
#327=VECTOR('',#1161,10.);
#328=VECTOR('',#1162,10.);
#329=VECTOR('',#1163,10.);
#330=VECTOR('',#1166,10.);
#331=VECTOR('',#1167,10.);
#332=VECTOR('',#1168,10.);
#333=VECTOR('',#1171,10.);
#334=VECTOR('',#1172,10.);
#335=VECTOR('',#1181,10.);
#336=VECTOR('',#1184,10.);
#337=VECTOR('',#1187,10.);
#338=VECTOR('',#1188,10.);
#339=VECTOR('',#1189,10.);
#340=VECTOR('',#1192,10.);
#341=VECTOR('',#1193,10.);
#342=VECTOR('',#1194,10.);
#343=VECTOR('',#1197,10.);
#344=VECTOR('',#1198,10.);
#345=VECTOR('',#1201,10.);
#346=VECTOR('',#1202,10.);
#347=VECTOR('',#1205,10.);
#348=VECTOR('',#1212,10.);
#349=VECTOR('',#1215,10.);
#350=VECTOR('',#1218,10.);
#351=VECTOR('',#1219,10.);
#352=VECTOR('',#1220,10.);
#353=VECTOR('',#1223,10.);
#354=VECTOR('',#1224,10.);
#355=VECTOR('',#1225,10.);
#356=VECTOR('',#1228,10.);
#357=VECTOR('',#1229,10.);
#358=VECTOR('',#1232,10.);
#359=VECTOR('',#1233,10.);
#360=VECTOR('',#1236,10.);
#361=CIRCLE('',#910,10.);
#362=CIRCLE('',#911,10.);
#363=CIRCLE('',#914,10.);
#364=CIRCLE('',#915,10.);
#365=CIRCLE('',#918,32.5);
#366=CIRCLE('',#919,5.);
#367=CIRCLE('',#920,27.5);
#368=CIRCLE('',#921,32.5);
#369=CIRCLE('',#923,32.5);
#370=CIRCLE('',#924,32.5);
#371=CIRCLE('',#927,35.);
#372=CIRCLE('',#929,3.);
#373=CIRCLE('',#931,35.);
#374=CIRCLE('',#932,35.);
#375=CIRCLE('',#933,2.);
#376=CIRCLE('',#934,34.5);
#377=CIRCLE('',#935,34.5);
#378=CIRCLE('',#937,35.);
#379=CIRCLE('',#938,35.);
#380=CIRCLE('',#939,35.);
#381=CIRCLE('',#941,2.);
#382=CIRCLE('',#943,3.);
#383=CIRCLE('',#969,5.);
#384=CIRCLE('',#970,5.);
#385=CIRCLE('',#978,5.);
#386=CIRCLE('',#979,5.);
#387=VERTEX_POINT('',#1241);
#388=VERTEX_POINT('',#1242);
#389=VERTEX_POINT('',#1244);
#390=VERTEX_POINT('',#1246);
#391=VERTEX_POINT('',#1250);
#392=VERTEX_POINT('',#1252);
#393=VERTEX_POINT('',#1254);
#394=VERTEX_POINT('',#1256);
#395=VERTEX_POINT('',#1260);
#396=VERTEX_POINT('',#1261);
#397=VERTEX_POINT('',#1263);
#398=VERTEX_POINT('',#1265);
#399=VERTEX_POINT('',#1269);
#400=VERTEX_POINT('',#1271);
#401=VERTEX_POINT('',#1275);
#402=VERTEX_POINT('',#1276);
#403=VERTEX_POINT('',#1278);
#404=VERTEX_POINT('',#1283);
#405=VERTEX_POINT('',#1284);
#406=VERTEX_POINT('',#1290);
#407=VERTEX_POINT('',#1292);
#408=VERTEX_POINT('',#1294);
#409=VERTEX_POINT('',#1298);
#410=VERTEX_POINT('',#1300);
#411=VERTEX_POINT('',#1302);
#412=VERTEX_POINT('',#1304);
#413=VERTEX_POINT('',#1306);
#414=VERTEX_POINT('',#1308);
#415=VERTEX_POINT('',#1312);
#416=VERTEX_POINT('',#1313);
#417=VERTEX_POINT('',#1316);
#418=VERTEX_POINT('',#1318);
#419=VERTEX_POINT('',#1323);
#420=VERTEX_POINT('',#1325);
#421=VERTEX_POINT('',#1327);
#422=VERTEX_POINT('',#1329);
#423=VERTEX_POINT('',#1335);
#424=VERTEX_POINT('',#1337);
#425=VERTEX_POINT('',#1342);
#426=VERTEX_POINT('',#1344);
#427=VERTEX_POINT('',#1346);
#428=VERTEX_POINT('',#1348);
#429=VERTEX_POINT('',#1356);
#430=VERTEX_POINT('',#1358);
#431=VERTEX_POINT('',#1362);
#432=VERTEX_POINT('',#1364);
#433=VERTEX_POINT('',#1369);
#434=VERTEX_POINT('',#1373);
#435=VERTEX_POINT('',#1378);
#436=VERTEX_POINT('',#1395);
#437=VERTEX_POINT('',#1403);
#438=VERTEX_POINT('',#1404);
#439=VERTEX_POINT('',#1406);
#440=VERTEX_POINT('',#1408);
#441=VERTEX_POINT('',#1412);
#442=VERTEX_POINT('',#1414);
#443=VERTEX_POINT('',#1418);
#444=VERTEX_POINT('',#1420);
#445=VERTEX_POINT('',#1429);
#446=VERTEX_POINT('',#1430);
#447=VERTEX_POINT('',#1432);
#448=VERTEX_POINT('',#1434);
#449=VERTEX_POINT('',#1438);
#450=VERTEX_POINT('',#1440);
#451=VERTEX_POINT('',#1444);
#452=VERTEX_POINT('',#1446);
#453=VERTEX_POINT('',#1450);
#454=VERTEX_POINT('',#1454);
#455=VERTEX_POINT('',#1461);
#456=VERTEX_POINT('',#1462);
#457=VERTEX_POINT('',#1464);
#458=VERTEX_POINT('',#1466);
#459=VERTEX_POINT('',#1470);
#460=VERTEX_POINT('',#1472);
#461=VERTEX_POINT('',#1476);
#462=VERTEX_POINT('',#1478);
#463=VERTEX_POINT('',#1482);
#464=VERTEX_POINT('',#1486);
#465=EDGE_CURVE('',#387,#388,#361,.T.);
#466=EDGE_CURVE('',#388,#389,#167,.T.);
#467=EDGE_CURVE('',#389,#390,#362,.F.);
#468=EDGE_CURVE('',#390,#387,#168,.T.);
#469=EDGE_CURVE('',#391,#390,#169,.T.);
#470=EDGE_CURVE('',#392,#391,#170,.T.);
#471=EDGE_CURVE('',#393,#392,#171,.T.);
#472=EDGE_CURVE('',#393,#394,#172,.T.);
#473=EDGE_CURVE('',#387,#394,#173,.T.);
#474=EDGE_CURVE('',#395,#396,#363,.T.);
#475=EDGE_CURVE('',#395,#397,#174,.T.);
#476=EDGE_CURVE('',#397,#398,#364,.T.);
#477=EDGE_CURVE('',#398,#396,#175,.T.);
#478=EDGE_CURVE('',#399,#398,#176,.T.);
#479=EDGE_CURVE('',#400,#399,#177,.T.);
#480=EDGE_CURVE('',#396,#400,#178,.T.);
#481=EDGE_CURVE('',#401,#402,#365,.T.);
#482=EDGE_CURVE('',#402,#403,#366,.T.);
#483=EDGE_CURVE('',#403,#403,#367,.T.);
#484=EDGE_CURVE('',#402,#401,#368,.T.);
#485=EDGE_CURVE('',#404,#405,#369,.T.);
#486=EDGE_CURVE('',#404,#401,#179,.T.);
#487=EDGE_CURVE('',#405,#404,#370,.T.);
#488=EDGE_CURVE('',#392,#406,#371,.T.);
#489=EDGE_CURVE('',#406,#407,#180,.T.);
#490=EDGE_CURVE('',#407,#408,#181,.T.);
#491=EDGE_CURVE('',#408,#393,#182,.T.);
#492=EDGE_CURVE('',#406,#409,#183,.T.);
#493=EDGE_CURVE('',#410,#409,#184,.T.);
#494=EDGE_CURVE('',#410,#411,#185,.T.);
#495=EDGE_CURVE('',#411,#412,#186,.T.);
#496=EDGE_CURVE('',#413,#412,#372,.T.);
#497=EDGE_CURVE('',#413,#414,#187,.T.);
#498=EDGE_CURVE('',#407,#414,#188,.T.);
#499=EDGE_CURVE('',#415,#416,#373,.T.);
#500=EDGE_CURVE('',#416,#415,#374,.T.);
#501=EDGE_CURVE('',#415,#417,#375,.T.);
#502=EDGE_CURVE('',#418,#417,#376,.T.);
#503=EDGE_CURVE('',#417,#418,#377,.T.);
#504=EDGE_CURVE('',#416,#391,#189,.T.);
#505=EDGE_CURVE('',#419,#391,#378,.T.);
#506=EDGE_CURVE('',#419,#420,#190,.T.);
#507=EDGE_CURVE('',#421,#419,#379,.T.);
#508=EDGE_CURVE('',#421,#422,#191,.T.);
#509=EDGE_CURVE('',#409,#421,#380,.T.);
#510=EDGE_CURVE('',#418,#405,#381,.T.);
#511=EDGE_CURVE('',#412,#423,#192,.T.);
#512=EDGE_CURVE('',#423,#424,#382,.T.);
#513=EDGE_CURVE('',#424,#413,#193,.T.);
#514=EDGE_CURVE('',#422,#411,#194,.T.);
#515=EDGE_CURVE('',#425,#422,#195,.T.);
#516=EDGE_CURVE('',#426,#425,#196,.T.);
#517=EDGE_CURVE('',#427,#426,#197,.T.);
#518=EDGE_CURVE('',#428,#427,#198,.T.);
#519=EDGE_CURVE('',#423,#428,#199,.T.);
#520=EDGE_CURVE('',#420,#388,#200,.T.);
#521=EDGE_CURVE('',#419,#420,#201,.T.);
#522=EDGE_CURVE('',#389,#419,#202,.T.);
#523=EDGE_CURVE('',#425,#429,#203,.T.);
#524=EDGE_CURVE('',#430,#429,#204,.T.);
#525=EDGE_CURVE('',#426,#430,#205,.T.);
#526=EDGE_CURVE('',#427,#431,#206,.T.);
#527=EDGE_CURVE('',#432,#431,#207,.T.);
#528=EDGE_CURVE('',#428,#432,#208,.T.);
#529=EDGE_CURVE('',#429,#420,#209,.T.);
#530=EDGE_CURVE('',#433,#425,#210,.T.);
#531=EDGE_CURVE('',#419,#433,#211,.T.);
#532=EDGE_CURVE('',#434,#395,#212,.T.);
#533=EDGE_CURVE('',#426,#434,#213,.T.);
#534=EDGE_CURVE('',#397,#430,#214,.T.);
#535=EDGE_CURVE('',#400,#435,#215,.T.);
#536=EDGE_CURVE('',#431,#399,#216,.T.);
#537=EDGE_CURVE('',#435,#427,#217,.T.);
#538=EDGE_CURVE('',#394,#432,#218,.T.);
#539=EDGE_CURVE('',#433,#421,#219,.T.);
#540=EDGE_CURVE('',#421,#422,#220,.T.);
#541=EDGE_CURVE('',#435,#434,#221,.T.);
#542=EDGE_CURVE('',#421,#410,#222,.T.);
#543=EDGE_CURVE('',#436,#424,#223,.T.);
#544=EDGE_CURVE('',#408,#436,#224,.T.);
#545=EDGE_CURVE('',#414,#436,#225,.T.);
#546=EDGE_CURVE('',#437,#438,#226,.T.);
#547=EDGE_CURVE('',#437,#439,#227,.T.);
#548=EDGE_CURVE('',#440,#439,#228,.T.);
#549=EDGE_CURVE('',#438,#440,#229,.T.);
#550=EDGE_CURVE('',#438,#441,#230,.T.);
#551=EDGE_CURVE('',#442,#440,#231,.T.);
#552=EDGE_CURVE('',#441,#442,#232,.T.);
#553=EDGE_CURVE('',#441,#443,#233,.T.);
#554=EDGE_CURVE('',#444,#442,#234,.T.);
#555=EDGE_CURVE('',#443,#444,#235,.T.);
#556=EDGE_CURVE('',#443,#437,#236,.T.);
#557=EDGE_CURVE('',#439,#444,#237,.T.);
#558=EDGE_CURVE('',#445,#446,#383,.T.);
#559=EDGE_CURVE('',#446,#447,#238,.T.);
#560=EDGE_CURVE('',#447,#448,#384,.T.);
#561=EDGE_CURVE('',#448,#445,#239,.T.);
#562=EDGE_CURVE('',#446,#449,#240,.T.);
#563=EDGE_CURVE('',#449,#450,#241,.T.);
#564=EDGE_CURVE('',#450,#447,#242,.T.);
#565=EDGE_CURVE('',#451,#445,#243,.T.);
#566=EDGE_CURVE('',#452,#451,#244,.T.);
#567=EDGE_CURVE('',#452,#449,#245,.T.);
#568=EDGE_CURVE('',#453,#448,#246,.T.);
#569=EDGE_CURVE('',#451,#453,#247,.T.);
#570=EDGE_CURVE('',#454,#450,#248,.T.);
#571=EDGE_CURVE('',#453,#454,#249,.T.);
#572=EDGE_CURVE('',#454,#452,#250,.T.);
#573=EDGE_CURVE('',#455,#456,#385,.T.);
#574=EDGE_CURVE('',#456,#457,#251,.T.);
#575=EDGE_CURVE('',#457,#458,#386,.T.);
#576=EDGE_CURVE('',#458,#455,#252,.T.);
#577=EDGE_CURVE('',#456,#459,#253,.T.);
#578=EDGE_CURVE('',#459,#460,#254,.T.);
#579=EDGE_CURVE('',#460,#457,#255,.T.);
#580=EDGE_CURVE('',#461,#455,#256,.T.);
#581=EDGE_CURVE('',#461,#462,#257,.T.);
#582=EDGE_CURVE('',#462,#459,#258,.T.);
#583=EDGE_CURVE('',#462,#463,#259,.T.);
#584=EDGE_CURVE('',#463,#460,#260,.T.);
#585=EDGE_CURVE('',#464,#458,#261,.T.);
#586=EDGE_CURVE('',#464,#461,#262,.T.);
#587=EDGE_CURVE('',#463,#464,#263,.T.);
#588=ORIENTED_EDGE('',*,*,#465,.T.);
#589=ORIENTED_EDGE('',*,*,#466,.T.);
#590=ORIENTED_EDGE('',*,*,#467,.T.);
#591=ORIENTED_EDGE('',*,*,#468,.T.);
#592=ORIENTED_EDGE('',*,*,#468,.F.);
#593=ORIENTED_EDGE('',*,*,#469,.F.);
#594=ORIENTED_EDGE('',*,*,#470,.F.);
#595=ORIENTED_EDGE('',*,*,#471,.F.);
#596=ORIENTED_EDGE('',*,*,#472,.T.);
#597=ORIENTED_EDGE('',*,*,#473,.F.);
#598=ORIENTED_EDGE('',*,*,#474,.F.);
#599=ORIENTED_EDGE('',*,*,#475,.T.);
#600=ORIENTED_EDGE('',*,*,#476,.T.);
#601=ORIENTED_EDGE('',*,*,#477,.T.);
#602=ORIENTED_EDGE('',*,*,#477,.F.);
#603=ORIENTED_EDGE('',*,*,#478,.F.);
#604=ORIENTED_EDGE('',*,*,#479,.F.);
#605=ORIENTED_EDGE('',*,*,#480,.F.);
#606=ORIENTED_EDGE('',*,*,#481,.T.);
#607=ORIENTED_EDGE('',*,*,#482,.T.);
#608=ORIENTED_EDGE('',*,*,#483,.T.);
#609=ORIENTED_EDGE('',*,*,#482,.F.);
#610=ORIENTED_EDGE('',*,*,#484,.T.);
#611=ORIENTED_EDGE('',*,*,#485,.F.);
#612=ORIENTED_EDGE('',*,*,#486,.T.);
#613=ORIENTED_EDGE('',*,*,#484,.F.);
#614=ORIENTED_EDGE('',*,*,#481,.F.);
#615=ORIENTED_EDGE('',*,*,#486,.F.);
#616=ORIENTED_EDGE('',*,*,#487,.F.);
#617=ORIENTED_EDGE('',*,*,#483,.F.);
#618=ORIENTED_EDGE('',*,*,#488,.T.);
#619=ORIENTED_EDGE('',*,*,#489,.T.);
#620=ORIENTED_EDGE('',*,*,#490,.T.);
#621=ORIENTED_EDGE('',*,*,#491,.T.);
#622=ORIENTED_EDGE('',*,*,#471,.T.);
#623=ORIENTED_EDGE('',*,*,#492,.T.);
#624=ORIENTED_EDGE('',*,*,#493,.F.);
#625=ORIENTED_EDGE('',*,*,#494,.T.);
#626=ORIENTED_EDGE('',*,*,#495,.T.);
#627=ORIENTED_EDGE('',*,*,#496,.F.);
#628=ORIENTED_EDGE('',*,*,#497,.T.);
#629=ORIENTED_EDGE('',*,*,#498,.F.);
#630=ORIENTED_EDGE('',*,*,#489,.F.);
#631=ORIENTED_EDGE('',*,*,#499,.T.);
#632=ORIENTED_EDGE('',*,*,#500,.T.);
#633=ORIENTED_EDGE('',*,*,#501,.T.);
#634=ORIENTED_EDGE('',*,*,#502,.F.);
#635=ORIENTED_EDGE('',*,*,#503,.F.);
#636=ORIENTED_EDGE('',*,*,#501,.F.);
#637=ORIENTED_EDGE('',*,*,#499,.F.);
#638=ORIENTED_EDGE('',*,*,#500,.F.);
#639=ORIENTED_EDGE('',*,*,#504,.T.);
#640=ORIENTED_EDGE('',*,*,#505,.F.);
#641=ORIENTED_EDGE('',*,*,#506,.T.);
#642=ORIENTED_EDGE('',*,*,#506,.F.);
#643=ORIENTED_EDGE('',*,*,#507,.F.);
#644=ORIENTED_EDGE('',*,*,#508,.T.);
#645=ORIENTED_EDGE('',*,*,#508,.F.);
#646=ORIENTED_EDGE('',*,*,#509,.F.);
#647=ORIENTED_EDGE('',*,*,#492,.F.);
#648=ORIENTED_EDGE('',*,*,#488,.F.);
#649=ORIENTED_EDGE('',*,*,#470,.T.);
#650=ORIENTED_EDGE('',*,*,#504,.F.);
#651=ORIENTED_EDGE('',*,*,#502,.T.);
#652=ORIENTED_EDGE('',*,*,#503,.T.);
#653=ORIENTED_EDGE('',*,*,#510,.T.);
#654=ORIENTED_EDGE('',*,*,#487,.T.);
#655=ORIENTED_EDGE('',*,*,#485,.T.);
#656=ORIENTED_EDGE('',*,*,#510,.F.);
#657=ORIENTED_EDGE('',*,*,#496,.T.);
#658=ORIENTED_EDGE('',*,*,#511,.T.);
#659=ORIENTED_EDGE('',*,*,#512,.T.);
#660=ORIENTED_EDGE('',*,*,#513,.T.);
#661=ORIENTED_EDGE('',*,*,#511,.F.);
#662=ORIENTED_EDGE('',*,*,#495,.F.);
#663=ORIENTED_EDGE('',*,*,#514,.F.);
#664=ORIENTED_EDGE('',*,*,#515,.F.);
#665=ORIENTED_EDGE('',*,*,#516,.F.);
#666=ORIENTED_EDGE('',*,*,#517,.F.);
#667=ORIENTED_EDGE('',*,*,#518,.F.);
#668=ORIENTED_EDGE('',*,*,#519,.F.);
#669=ORIENTED_EDGE('',*,*,#466,.F.);
#670=ORIENTED_EDGE('',*,*,#520,.F.);
#671=ORIENTED_EDGE('',*,*,#521,.F.);
#672=ORIENTED_EDGE('',*,*,#522,.F.);
#673=ORIENTED_EDGE('',*,*,#516,.T.);
#674=ORIENTED_EDGE('',*,*,#523,.T.);
#675=ORIENTED_EDGE('',*,*,#524,.F.);
#676=ORIENTED_EDGE('',*,*,#525,.F.);
#677=ORIENTED_EDGE('',*,*,#518,.T.);
#678=ORIENTED_EDGE('',*,*,#526,.T.);
#679=ORIENTED_EDGE('',*,*,#527,.F.);
#680=ORIENTED_EDGE('',*,*,#528,.F.);
#681=ORIENTED_EDGE('',*,*,#521,.T.);
#682=ORIENTED_EDGE('',*,*,#529,.F.);
#683=ORIENTED_EDGE('',*,*,#523,.F.);
#684=ORIENTED_EDGE('',*,*,#530,.F.);
#685=ORIENTED_EDGE('',*,*,#531,.F.);
#686=ORIENTED_EDGE('',*,*,#475,.F.);
#687=ORIENTED_EDGE('',*,*,#532,.F.);
#688=ORIENTED_EDGE('',*,*,#533,.F.);
#689=ORIENTED_EDGE('',*,*,#525,.T.);
#690=ORIENTED_EDGE('',*,*,#534,.F.);
#691=ORIENTED_EDGE('',*,*,#535,.F.);
#692=ORIENTED_EDGE('',*,*,#479,.T.);
#693=ORIENTED_EDGE('',*,*,#536,.F.);
#694=ORIENTED_EDGE('',*,*,#526,.F.);
#695=ORIENTED_EDGE('',*,*,#537,.F.);
#696=ORIENTED_EDGE('',*,*,#465,.F.);
#697=ORIENTED_EDGE('',*,*,#473,.T.);
#698=ORIENTED_EDGE('',*,*,#538,.T.);
#699=ORIENTED_EDGE('',*,*,#527,.T.);
#700=ORIENTED_EDGE('',*,*,#536,.T.);
#701=ORIENTED_EDGE('',*,*,#478,.T.);
#702=ORIENTED_EDGE('',*,*,#476,.F.);
#703=ORIENTED_EDGE('',*,*,#534,.T.);
#704=ORIENTED_EDGE('',*,*,#524,.T.);
#705=ORIENTED_EDGE('',*,*,#529,.T.);
#706=ORIENTED_EDGE('',*,*,#520,.T.);
#707=ORIENTED_EDGE('',*,*,#531,.T.);
#708=ORIENTED_EDGE('',*,*,#539,.T.);
#709=ORIENTED_EDGE('',*,*,#507,.T.);
#710=ORIENTED_EDGE('',*,*,#522,.T.);
#711=ORIENTED_EDGE('',*,*,#505,.T.);
#712=ORIENTED_EDGE('',*,*,#469,.T.);
#713=ORIENTED_EDGE('',*,*,#467,.F.);
#714=ORIENTED_EDGE('',*,*,#530,.T.);
#715=ORIENTED_EDGE('',*,*,#515,.T.);
#716=ORIENTED_EDGE('',*,*,#540,.F.);
#717=ORIENTED_EDGE('',*,*,#539,.F.);
#718=ORIENTED_EDGE('',*,*,#537,.T.);
#719=ORIENTED_EDGE('',*,*,#517,.T.);
#720=ORIENTED_EDGE('',*,*,#533,.T.);
#721=ORIENTED_EDGE('',*,*,#541,.F.);
#722=ORIENTED_EDGE('',*,*,#509,.T.);
#723=ORIENTED_EDGE('',*,*,#542,.T.);
#724=ORIENTED_EDGE('',*,*,#493,.T.);
#725=ORIENTED_EDGE('',*,*,#474,.T.);
#726=ORIENTED_EDGE('',*,*,#480,.T.);
#727=ORIENTED_EDGE('',*,*,#535,.T.);
#728=ORIENTED_EDGE('',*,*,#541,.T.);
#729=ORIENTED_EDGE('',*,*,#532,.T.);
#730=ORIENTED_EDGE('',*,*,#543,.T.);
#731=ORIENTED_EDGE('',*,*,#512,.F.);
#732=ORIENTED_EDGE('',*,*,#519,.T.);
#733=ORIENTED_EDGE('',*,*,#528,.T.);
#734=ORIENTED_EDGE('',*,*,#538,.F.);
#735=ORIENTED_EDGE('',*,*,#472,.F.);
#736=ORIENTED_EDGE('',*,*,#491,.F.);
#737=ORIENTED_EDGE('',*,*,#544,.T.);
#738=ORIENTED_EDGE('',*,*,#513,.F.);
#739=ORIENTED_EDGE('',*,*,#543,.F.);
#740=ORIENTED_EDGE('',*,*,#545,.F.);
#741=ORIENTED_EDGE('',*,*,#497,.F.);
#742=ORIENTED_EDGE('',*,*,#540,.T.);
#743=ORIENTED_EDGE('',*,*,#514,.T.);
#744=ORIENTED_EDGE('',*,*,#494,.F.);
#745=ORIENTED_EDGE('',*,*,#542,.F.);
#746=ORIENTED_EDGE('',*,*,#545,.T.);
#747=ORIENTED_EDGE('',*,*,#544,.F.);
#748=ORIENTED_EDGE('',*,*,#490,.F.);
#749=ORIENTED_EDGE('',*,*,#498,.T.);
#750=ORIENTED_EDGE('',*,*,#546,.F.);
#751=ORIENTED_EDGE('',*,*,#547,.T.);
#752=ORIENTED_EDGE('',*,*,#548,.F.);
#753=ORIENTED_EDGE('',*,*,#549,.F.);
#754=ORIENTED_EDGE('',*,*,#550,.F.);
#755=ORIENTED_EDGE('',*,*,#549,.T.);
#756=ORIENTED_EDGE('',*,*,#551,.F.);
#757=ORIENTED_EDGE('',*,*,#552,.F.);
#758=ORIENTED_EDGE('',*,*,#553,.F.);
#759=ORIENTED_EDGE('',*,*,#552,.T.);
#760=ORIENTED_EDGE('',*,*,#554,.F.);
#761=ORIENTED_EDGE('',*,*,#555,.F.);
#762=ORIENTED_EDGE('',*,*,#556,.F.);
#763=ORIENTED_EDGE('',*,*,#555,.T.);
#764=ORIENTED_EDGE('',*,*,#557,.F.);
#765=ORIENTED_EDGE('',*,*,#547,.F.);
#766=ORIENTED_EDGE('',*,*,#557,.T.);
#767=ORIENTED_EDGE('',*,*,#554,.T.);
#768=ORIENTED_EDGE('',*,*,#551,.T.);
#769=ORIENTED_EDGE('',*,*,#548,.T.);
#770=ORIENTED_EDGE('',*,*,#556,.T.);
#771=ORIENTED_EDGE('',*,*,#546,.T.);
#772=ORIENTED_EDGE('',*,*,#550,.T.);
#773=ORIENTED_EDGE('',*,*,#553,.T.);
#774=ORIENTED_EDGE('',*,*,#558,.T.);
#775=ORIENTED_EDGE('',*,*,#559,.T.);
#776=ORIENTED_EDGE('',*,*,#560,.T.);
#777=ORIENTED_EDGE('',*,*,#561,.T.);
#778=ORIENTED_EDGE('',*,*,#559,.F.);
#779=ORIENTED_EDGE('',*,*,#562,.T.);
#780=ORIENTED_EDGE('',*,*,#563,.T.);
#781=ORIENTED_EDGE('',*,*,#564,.T.);
#782=ORIENTED_EDGE('',*,*,#558,.F.);
#783=ORIENTED_EDGE('',*,*,#565,.F.);
#784=ORIENTED_EDGE('',*,*,#566,.F.);
#785=ORIENTED_EDGE('',*,*,#567,.T.);
#786=ORIENTED_EDGE('',*,*,#562,.F.);
#787=ORIENTED_EDGE('',*,*,#561,.F.);
#788=ORIENTED_EDGE('',*,*,#568,.F.);
#789=ORIENTED_EDGE('',*,*,#569,.F.);
#790=ORIENTED_EDGE('',*,*,#565,.T.);
#791=ORIENTED_EDGE('',*,*,#560,.F.);
#792=ORIENTED_EDGE('',*,*,#564,.F.);
#793=ORIENTED_EDGE('',*,*,#570,.F.);
#794=ORIENTED_EDGE('',*,*,#571,.F.);
#795=ORIENTED_EDGE('',*,*,#568,.T.);
#796=ORIENTED_EDGE('',*,*,#572,.F.);
#797=ORIENTED_EDGE('',*,*,#570,.T.);
#798=ORIENTED_EDGE('',*,*,#563,.F.);
#799=ORIENTED_EDGE('',*,*,#567,.F.);
#800=ORIENTED_EDGE('',*,*,#572,.T.);
#801=ORIENTED_EDGE('',*,*,#566,.T.);
#802=ORIENTED_EDGE('',*,*,#569,.T.);
#803=ORIENTED_EDGE('',*,*,#571,.T.);
#804=ORIENTED_EDGE('',*,*,#573,.T.);
#805=ORIENTED_EDGE('',*,*,#574,.T.);
#806=ORIENTED_EDGE('',*,*,#575,.T.);
#807=ORIENTED_EDGE('',*,*,#576,.T.);
#808=ORIENTED_EDGE('',*,*,#574,.F.);
#809=ORIENTED_EDGE('',*,*,#577,.T.);
#810=ORIENTED_EDGE('',*,*,#578,.T.);
#811=ORIENTED_EDGE('',*,*,#579,.T.);
#812=ORIENTED_EDGE('',*,*,#573,.F.);
#813=ORIENTED_EDGE('',*,*,#580,.F.);
#814=ORIENTED_EDGE('',*,*,#581,.T.);
#815=ORIENTED_EDGE('',*,*,#582,.T.);
#816=ORIENTED_EDGE('',*,*,#577,.F.);
#817=ORIENTED_EDGE('',*,*,#583,.T.);
#818=ORIENTED_EDGE('',*,*,#584,.T.);
#819=ORIENTED_EDGE('',*,*,#578,.F.);
#820=ORIENTED_EDGE('',*,*,#582,.F.);
#821=ORIENTED_EDGE('',*,*,#576,.F.);
#822=ORIENTED_EDGE('',*,*,#585,.F.);
#823=ORIENTED_EDGE('',*,*,#586,.T.);
#824=ORIENTED_EDGE('',*,*,#580,.T.);
#825=ORIENTED_EDGE('',*,*,#575,.F.);
#826=ORIENTED_EDGE('',*,*,#579,.F.);
#827=ORIENTED_EDGE('',*,*,#584,.F.);
#828=ORIENTED_EDGE('',*,*,#587,.T.);
#829=ORIENTED_EDGE('',*,*,#585,.T.);
#830=ORIENTED_EDGE('',*,*,#587,.F.);
#831=ORIENTED_EDGE('',*,*,#583,.F.);
#832=ORIENTED_EDGE('',*,*,#581,.F.);
#833=ORIENTED_EDGE('',*,*,#586,.F.);
#834=CYLINDRICAL_SURFACE('',#909,10.);
#835=CYLINDRICAL_SURFACE('',#913,10.);
#836=CYLINDRICAL_SURFACE('',#922,32.5);
#837=CYLINDRICAL_SURFACE('',#936,35.);
#838=CYLINDRICAL_SURFACE('',#942,3.);
#839=CYLINDRICAL_SURFACE('',#968,5.);
#840=CYLINDRICAL_SURFACE('',#977,5.);
#841=ADVANCED_FACE('',(#65),#834,.T.);
#842=ADVANCED_FACE('',(#66),#24,.T.);
#843=ADVANCED_FACE('',(#67),#835,.F.);
#844=ADVANCED_FACE('',(#68),#25,.T.);
#845=ADVANCED_FACE('',(#69),#21,.F.);
#846=ADVANCED_FACE('',(#70),#836,.F.);
#847=ADVANCED_FACE('',(#71),#26,.T.);
#848=ADVANCED_FACE('',(#72),#27,.F.);
#849=ADVANCED_FACE('',(#73),#28,.T.);
#850=ADVANCED_FACE('',(#74),#22,.T.);
#851=ADVANCED_FACE('',(#75),#837,.T.);
#852=ADVANCED_FACE('',(#76),#23,.T.);
#853=ADVANCED_FACE('',(#77),#838,.F.);
#854=ADVANCED_FACE('',(#78),#29,.F.);
#855=ADVANCED_FACE('',(#79),#30,.T.);
#856=ADVANCED_FACE('',(#80),#31,.T.);
#857=ADVANCED_FACE('',(#81),#32,.T.);
#858=ADVANCED_FACE('',(#82),#33,.T.);
#859=ADVANCED_FACE('',(#83),#34,.T.);
#860=ADVANCED_FACE('',(#84),#35,.T.);
#861=ADVANCED_FACE('',(#85),#36,.T.);
#862=ADVANCED_FACE('',(#86),#37,.T.);
#863=ADVANCED_FACE('',(#87),#38,.T.);
#864=ADVANCED_FACE('',(#88),#39,.T.);
#865=ADVANCED_FACE('',(#89),#40,.T.);
#866=ADVANCED_FACE('',(#90),#41,.T.);
#867=ADVANCED_FACE('',(#91),#42,.T.);
#868=ADVANCED_FACE('',(#92),#43,.T.);
#869=ADVANCED_FACE('',(#93),#44,.T.);
#870=ADVANCED_FACE('',(#94),#45,.T.);
#871=ADVANCED_FACE('',(#95),#46,.T.);
#872=ADVANCED_FACE('',(#96),#47,.T.);
#873=ADVANCED_FACE('',(#97),#48,.T.);
#874=ADVANCED_FACE('',(#98),#49,.T.);
#875=ADVANCED_FACE('',(#99),#50,.T.);
#876=ADVANCED_FACE('',(#100),#51,.T.);
#877=ADVANCED_FACE('',(#101),#52,.F.);
#878=ADVANCED_FACE('',(#102),#839,.T.);
#879=ADVANCED_FACE('',(#103),#53,.T.);
#880=ADVANCED_FACE('',(#104),#54,.T.);
#881=ADVANCED_FACE('',(#105),#55,.T.);
#882=ADVANCED_FACE('',(#106),#56,.T.);
#883=ADVANCED_FACE('',(#107),#57,.T.);
#884=ADVANCED_FACE('',(#108),#58,.F.);
#885=ADVANCED_FACE('',(#109),#840,.T.);
#886=ADVANCED_FACE('',(#110),#59,.T.);
#887=ADVANCED_FACE('',(#111),#60,.T.);
#888=ADVANCED_FACE('',(#112),#61,.T.);
#889=ADVANCED_FACE('',(#113),#62,.T.);
#890=ADVANCED_FACE('',(#114),#63,.T.);
#891=ADVANCED_FACE('',(#115),#64,.F.);
#892=CLOSED_SHELL('',(#841,#842,#843,#844,#845,#846,#847,#848,#849,#850,
#851,#852,#853,#854,#855,#856,#857,#858,#859,#860,#861,#862,#863,#864,#865,
#866,#867,#868,#869,#870,#871));
#893=CLOSED_SHELL('',(#872,#873,#874,#875,#876,#877));
#894=CLOSED_SHELL('',(#878,#879,#880,#881,#882,#883,#884));
#895=CLOSED_SHELL('',(#885,#886,#887,#888,#889,#890,#891));
#896=DERIVED_UNIT_ELEMENT(#898,1.);
#897=DERIVED_UNIT_ELEMENT(#1497,-3.);
#898=(
MASS_UNIT()
NAMED_UNIT(*)
SI_UNIT(.KILO.,.GRAM.)
);
#899=DERIVED_UNIT((#896,#897));
#900=MEASURE_REPRESENTATION_ITEM('density measure',
POSITIVE_RATIO_MEASURE(7850.),#899);
#901=PROPERTY_DEFINITION_REPRESENTATION(#906,#903);
#902=PROPERTY_DEFINITION_REPRESENTATION(#907,#904);
#903=REPRESENTATION('material name',(#905),#1494);
#904=REPRESENTATION('density',(#900),#1494);
#905=DESCRIPTIVE_REPRESENTATION_ITEM('Steel','Steel');
#906=PROPERTY_DEFINITION('material property','material name',#1504);
#907=PROPERTY_DEFINITION('material property','density of part',#1504);
#908=AXIS2_PLACEMENT_3D('',#1239,#986,#987);
#909=AXIS2_PLACEMENT_3D('',#1240,#988,#989);
#910=AXIS2_PLACEMENT_3D('',#1243,#990,#991);
#911=AXIS2_PLACEMENT_3D('',#1247,#993,#994);
#912=AXIS2_PLACEMENT_3D('',#1249,#996,#997);
#913=AXIS2_PLACEMENT_3D('',#1259,#1003,#1004);
#914=AXIS2_PLACEMENT_3D('',#1262,#1005,#1006);
#915=AXIS2_PLACEMENT_3D('',#1266,#1008,#1009);
#916=AXIS2_PLACEMENT_3D('',#1268,#1011,#1012);
#917=AXIS2_PLACEMENT_3D('',#1274,#1016,#1017);
#918=AXIS2_PLACEMENT_3D('',#1277,#1018,#1019);
#919=AXIS2_PLACEMENT_3D('',#1279,#1020,#1021);
#920=AXIS2_PLACEMENT_3D('',#1280,#1022,#1023);
#921=AXIS2_PLACEMENT_3D('',#1281,#1024,#1025);
#922=AXIS2_PLACEMENT_3D('',#1282,#1026,#1027);
#923=AXIS2_PLACEMENT_3D('',#1285,#1028,#1029);
#924=AXIS2_PLACEMENT_3D('',#1287,#1031,#1032);
#925=AXIS2_PLACEMENT_3D('',#1288,#1033,#1034);
#926=AXIS2_PLACEMENT_3D('',#1289,#1035,#1036);
#927=AXIS2_PLACEMENT_3D('',#1291,#1037,#1038);
#928=AXIS2_PLACEMENT_3D('',#1297,#1042,#1043);
#929=AXIS2_PLACEMENT_3D('',#1307,#1048,#1049);
#930=AXIS2_PLACEMENT_3D('',#1311,#1052,#1053);
#931=AXIS2_PLACEMENT_3D('',#1314,#1054,#1055);
#932=AXIS2_PLACEMENT_3D('',#1315,#1056,#1057);
#933=AXIS2_PLACEMENT_3D('',#1317,#1058,#1059);
#934=AXIS2_PLACEMENT_3D('',#1319,#1060,#1061);
#935=AXIS2_PLACEMENT_3D('',#1320,#1062,#1063);
#936=AXIS2_PLACEMENT_3D('',#1321,#1064,#1065);
#937=AXIS2_PLACEMENT_3D('',#1324,#1067,#1068);
#938=AXIS2_PLACEMENT_3D('',#1328,#1070,#1071);
#939=AXIS2_PLACEMENT_3D('',#1331,#1073,#1074);
#940=AXIS2_PLACEMENT_3D('',#1332,#1075,#1076);
#941=AXIS2_PLACEMENT_3D('',#1333,#1077,#1078);
#942=AXIS2_PLACEMENT_3D('',#1334,#1079,#1080);
#943=AXIS2_PLACEMENT_3D('',#1338,#1082,#1083);
#944=AXIS2_PLACEMENT_3D('',#1340,#1085,#1086);
#945=AXIS2_PLACEMENT_3D('',#1351,#1093,#1094);
#946=AXIS2_PLACEMENT_3D('',#1355,#1098,#1099);
#947=AXIS2_PLACEMENT_3D('',#1361,#1103,#1104);
#948=AXIS2_PLACEMENT_3D('',#1367,#1108,#1109);
#949=AXIS2_PLACEMENT_3D('',#1372,#1113,#1114);
#950=AXIS2_PLACEMENT_3D('',#1377,#1118,#1119);
#951=AXIS2_PLACEMENT_3D('',#1382,#1123,#1124);
#952=AXIS2_PLACEMENT_3D('',#1384,#1126,#1127);
#953=AXIS2_PLACEMENT_3D('',#1386,#1129,#1130);
#954=AXIS2_PLACEMENT_3D('',#1387,#1131,#1132);
#955=AXIS2_PLACEMENT_3D('',#1389,#1134,#1135);
#956=AXIS2_PLACEMENT_3D('',#1391,#1137,#1138);
#957=AXIS2_PLACEMENT_3D('',#1393,#1140,#1141);
#958=AXIS2_PLACEMENT_3D('',#1394,#1142,#1143);
#959=AXIS2_PLACEMENT_3D('',#1398,#1146,#1147);
#960=AXIS2_PLACEMENT_3D('',#1400,#1149,#1150);
#961=AXIS2_PLACEMENT_3D('',#1401,#1151,#1152);
#962=AXIS2_PLACEMENT_3D('',#1402,#1153,#1154);
#963=AXIS2_PLACEMENT_3D('',#1411,#1159,#1160);
#964=AXIS2_PLACEMENT_3D('',#1417,#1164,#1165);
#965=AXIS2_PLACEMENT_3D('',#1423,#1169,#1170);
#966=AXIS2_PLACEMENT_3D('',#1426,#1173,#1174);
#967=AXIS2_PLACEMENT_3D('',#1427,#1175,#1176);
#968=AXIS2_PLACEMENT_3D('',#1428,#1177,#1178);
#969=AXIS2_PLACEMENT_3D('',#1431,#1179,#1180);
#970=AXIS2_PLACEMENT_3D('',#1435,#1182,#1183);
#971=AXIS2_PLACEMENT_3D('',#1437,#1185,#1186);
#972=AXIS2_PLACEMENT_3D('',#1443,#1190,#1191);
#973=AXIS2_PLACEMENT_3D('',#1449,#1195,#1196);
#974=AXIS2_PLACEMENT_3D('',#1453,#1199,#1200);
#975=AXIS2_PLACEMENT_3D('',#1457,#1203,#1204);
#976=AXIS2_PLACEMENT_3D('',#1459,#1206,#1207);
#977=AXIS2_PLACEMENT_3D('',#1460,#1208,#1209);
#978=AXIS2_PLACEMENT_3D('',#1463,#1210,#1211);
#979=AXIS2_PLACEMENT_3D('',#1467,#1213,#1214);
#980=AXIS2_PLACEMENT_3D('',#1469,#1216,#1217);
#981=AXIS2_PLACEMENT_3D('',#1475,#1221,#1222);
#982=AXIS2_PLACEMENT_3D('',#1481,#1226,#1227);
#983=AXIS2_PLACEMENT_3D('',#1485,#1230,#1231);
#984=AXIS2_PLACEMENT_3D('',#1489,#1234,#1235);
#985=AXIS2_PLACEMENT_3D('',#1491,#1237,#1238);
#986=DIRECTION('axis',(0.,0.,1.));
#987=DIRECTION('refdir',(1.,0.,0.));
#988=DIRECTION('center_axis',(0.,1.,0.));
#989=DIRECTION('ref_axis',(0.707106781186547,0.,0.707106781186547));
#990=DIRECTION('center_axis',(0.,-1.,0.));
#991=DIRECTION('ref_axis',(0.707106781186547,0.,0.707106781186547));
#992=DIRECTION('',(0.,-1.,0.));
#993=DIRECTION('center_axis',(0.,-1.,0.));
#994=DIRECTION('ref_axis',(0.707106781186547,0.,0.707106781186547));
#995=DIRECTION('',(0.,1.,0.));
#996=DIRECTION('center_axis',(1.,0.,0.));
#997=DIRECTION('ref_axis',(0.,0.,-1.));
#998=DIRECTION('',(0.,0.,-1.));
#999=DIRECTION('',(0.,1.,0.));
#1000=DIRECTION('',(0.,0.,1.));
#1001=DIRECTION('',(0.,1.,0.));
#1002=DIRECTION('',(0.,0.,-1.));
#1003=DIRECTION('center_axis',(0.,1.,0.));
#1004=DIRECTION('ref_axis',(0.707106781186547,0.,0.707106781186547));
#1005=DIRECTION('center_axis',(0.,1.,0.));
#1006=DIRECTION('ref_axis',(0.707106781186547,0.,0.707106781186547));
#1007=DIRECTION('',(0.,1.,0.));
#1008=DIRECTION('center_axis',(0.,1.,0.));
#1009=DIRECTION('ref_axis',(0.707106781186547,0.,0.707106781186547));
#1010=DIRECTION('',(0.,-1.,0.));
#1011=DIRECTION('center_axis',(-1.,0.,0.));
#1012=DIRECTION('ref_axis',(0.,0.,1.));
#1013=DIRECTION('',(0.,0.,1.));
#1014=DIRECTION('',(0.,1.,0.));
#1015=DIRECTION('',(0.,0.,-1.));
#1016=DIRECTION('center_axis',(0.,1.,0.));
#1017=DIRECTION('ref_axis',(0.,0.,1.));
#1018=DIRECTION('center_axis',(0.,1.,0.));
#1019=DIRECTION('ref_axis',(-1.,0.,0.));
#1020=DIRECTION('center_axis',(-1.,0.,0.));
#1021=DIRECTION('ref_axis',(0.,0.,-1.));
#1022=DIRECTION('center_axis',(0.,-1.,0.));
#1023=DIRECTION('ref_axis',(-1.,0.,0.));
#1024=DIRECTION('center_axis',(0.,1.,0.));
#1025=DIRECTION('ref_axis',(-1.,0.,0.));
#1026=DIRECTION('center_axis',(0.,1.,0.));
#1027=DIRECTION('ref_axis',(-1.,0.,0.));
#1028=DIRECTION('center_axis',(0.,-1.,0.));
#1029=DIRECTION('ref_axis',(-1.,0.,0.));
#1030=DIRECTION('',(0.,-1.,0.));
#1031=DIRECTION('center_axis',(0.,-1.,0.));
#1032=DIRECTION('ref_axis',(-1.,0.,0.));
#1033=DIRECTION('center_axis',(0.,1.,0.));
#1034=DIRECTION('ref_axis',(0.,0.,1.));
#1035=DIRECTION('center_axis',(0.,1.,0.));
#1036=DIRECTION('ref_axis',(1.,0.,0.));
#1037=DIRECTION('center_axis',(0.,-1.,0.));
#1038=DIRECTION('ref_axis',(-1.,0.,0.));
#1039=DIRECTION('',(-1.,0.,0.));
#1040=DIRECTION('',(0.,0.,-1.));
#1041=DIRECTION('',(1.,0.,0.));
#1042=DIRECTION('center_axis',(0.,0.,1.));
#1043=DIRECTION('ref_axis',(1.,0.,0.));
#1044=DIRECTION('',(0.,1.,0.));
#1045=DIRECTION('',(1.,0.,0.));
#1046=DIRECTION('',(0.,1.,0.));
#1047=DIRECTION('',(-0.342020143325669,-0.939692620785908,0.));
#1048=DIRECTION('center_axis',(0.,0.,1.));
#1049=DIRECTION('ref_axis',(0.422618261740704,-0.906307787036648,0.));
#1050=DIRECTION('',(-0.939692620785909,0.342020143325668,0.));
#1051=DIRECTION('',(0.,1.,0.));
#1052=DIRECTION('center_axis',(0.,-1.,0.));
#1053=DIRECTION('ref_axis',(1.,0.,0.));
#1054=DIRECTION('center_axis',(0.,1.,0.));
#1055=DIRECTION('ref_axis',(1.,0.,0.));
#1056=DIRECTION('center_axis',(0.,1.,0.));
#1057=DIRECTION('ref_axis',(1.,0.,0.));
#1058=DIRECTION('center_axis',(0.,0.,-1.));
#1059=DIRECTION('ref_axis',(-1.,0.,0.));
#1060=DIRECTION('center_axis',(0.,1.,0.));
#1061=DIRECTION('ref_axis',(-1.,0.,0.));
#1062=DIRECTION('center_axis',(0.,1.,0.));
#1063=DIRECTION('ref_axis',(-1.,0.,0.));
#1064=DIRECTION('center_axis',(0.,1.,0.));
#1065=DIRECTION('ref_axis',(-1.,0.,0.));
#1066=DIRECTION('',(0.,-1.,0.));
#1067=DIRECTION('center_axis',(0.,-1.,0.));
#1068=DIRECTION('ref_axis',(-1.,0.,0.));
#1069=DIRECTION('',(0.,1.,0.));
#1070=DIRECTION('center_axis',(0.,-1.,0.));
#1071=DIRECTION('ref_axis',(-1.,0.,0.));
#1072=DIRECTION('',(0.,1.,0.));
#1073=DIRECTION('center_axis',(0.,-1.,0.));
#1074=DIRECTION('ref_axis',(-1.,0.,0.));
#1075=DIRECTION('center_axis',(0.,-1.,0.));
#1076=DIRECTION('ref_axis',(0.,0.,-1.));
#1077=DIRECTION('center_axis',(-1.,0.,0.));
#1078=DIRECTION('ref_axis',(0.,0.,1.));
#1079=DIRECTION('center_axis',(0.,0.,-1.));
#1080=DIRECTION('ref_axis',(0.422618261740704,-0.906307787036648,0.));
#1081=DIRECTION('',(0.,0.,-1.));
#1082=DIRECTION('center_axis',(0.,0.,-1.));
#1083=DIRECTION('ref_axis',(0.422618261740704,-0.906307787036648,0.));
#1084=DIRECTION('',(0.,0.,1.));
#1085=DIRECTION('center_axis',(0.939692620785908,-0.342020143325669,0.));
#1086=DIRECTION('ref_axis',(-0.342020143325669,-0.939692620785908,0.));
#1087=DIRECTION('',(0.,0.,1.));
#1088=DIRECTION('',(0.,0.,1.));
#1089=DIRECTION('',(0.,0.,1.));
#1090=DIRECTION('',(0.,0.,1.));
#1091=DIRECTION('',(0.,0.,1.));
#1092=DIRECTION('',(0.342020143325669,0.939692620785908,0.));
#1093=DIRECTION('center_axis',(0.,0.,1.));
#1094=DIRECTION('ref_axis',(1.,0.,0.));
#1095=DIRECTION('',(1.,0.,0.));
#1096=DIRECTION('',(0.,1.,0.));
#1097=DIRECTION('',(-1.,0.,0.));
#1098=DIRECTION('center_axis',(-1.,0.,0.));
#1099=DIRECTION('ref_axis',(0.,0.,1.));
#1100=DIRECTION('',(0.,1.,0.));
#1101=DIRECTION('',(0.,0.,1.));
#1102=DIRECTION('',(0.,1.,0.));
#1103=DIRECTION('center_axis',(-1.,0.,0.));
#1104=DIRECTION('ref_axis',(0.,0.,1.));
#1105=DIRECTION('',(0.,1.,0.));
#1106=DIRECTION('',(0.,0.,1.));
#1107=DIRECTION('',(0.,1.,0.));
#1108=DIRECTION('center_axis',(0.,0.,1.));
#1109=DIRECTION('ref_axis',(1.,0.,0.));
#1110=DIRECTION('',(1.,0.,0.));
#1111=DIRECTION('',(0.,1.,0.));
#1112=DIRECTION('',(-1.,0.,0.));
#1113=DIRECTION('center_axis',(0.,0.,-1.));
#1114=DIRECTION('ref_axis',(-1.,0.,0.));
#1115=DIRECTION('',(1.,0.,0.));
#1116=DIRECTION('',(0.,-1.,0.));
#1117=DIRECTION('',(-1.,0.,0.));
#1118=DIRECTION('center_axis',(0.,0.,1.));
#1119=DIRECTION('ref_axis',(1.,0.,0.));
#1120=DIRECTION('',(-1.,0.,0.));
#1121=DIRECTION('',(1.,0.,0.));
#1122=DIRECTION('',(0.,1.,0.));
#1123=DIRECTION('center_axis',(0.,1.,0.));
#1124=DIRECTION('ref_axis',(0.,0.,1.));
#1125=DIRECTION('',(-1.,0.,0.));
#1126=DIRECTION('center_axis',(0.,1.,0.));
#1127=DIRECTION('ref_axis',(0.,0.,1.));
#1128=DIRECTION('',(0.,0.,1.));
#1129=DIRECTION('center_axis',(0.,1.,0.));
#1130=DIRECTION('ref_axis',(0.,0.,1.));
#1131=DIRECTION('center_axis',(1.,0.,0.));
#1132=DIRECTION('ref_axis',(0.,0.,-1.));
#1133=DIRECTION('',(0.,1.,0.));
#1134=DIRECTION('center_axis',(1.,0.,0.));
#1135=DIRECTION('ref_axis',(0.,0.,-1.));
#1136=DIRECTION('',(0.,0.,1.));
#1137=DIRECTION('center_axis',(0.,1.,0.));
#1138=DIRECTION('ref_axis',(0.,0.,1.));
#1139=DIRECTION('',(0.,0.,1.));
#1140=DIRECTION('center_axis',(0.,1.,0.));
#1141=DIRECTION('ref_axis',(0.,0.,1.));
#1142=DIRECTION('center_axis',(0.,0.,-1.));
#1143=DIRECTION('ref_axis',(-1.,0.,0.));
#1144=DIRECTION('',(0.939692620785908,-0.342020143325669,0.));
#1145=DIRECTION('',(0.,1.,0.));
#1146=DIRECTION('center_axis',(0.342020143325669,0.939692620785908,0.));
#1147=DIRECTION('ref_axis',(0.939692620785908,-0.342020143325669,0.));
#1148=DIRECTION('',(0.,0.,-1.));
#1149=DIRECTION('center_axis',(1.,0.,0.));
#1150=DIRECTION('ref_axis',(0.,0.,-1.));
#1151=DIRECTION('center_axis',(-1.,0.,0.));
#1152=DIRECTION('ref_axis',(0.,0.,1.));
#1153=DIRECTION('center_axis',(-1.,0.,0.));
#1154=DIRECTION('ref_axis',(0.,0.,1.));
#1155=DIRECTION('',(0.,0.,-1.));
#1156=DIRECTION('',(0.,1.,0.));
#1157=DIRECTION('',(0.,0.,1.));
#1158=DIRECTION('',(0.,1.,0.));
#1159=DIRECTION('center_axis',(0.,0.,-1.));
#1160=DIRECTION('ref_axis',(-1.,0.,0.));
#1161=DIRECTION('',(1.,0.,0.));
#1162=DIRECTION('',(-1.,0.,0.));
#1163=DIRECTION('',(0.,1.,0.));
#1164=DIRECTION('center_axis',(1.,0.,0.));
#1165=DIRECTION('ref_axis',(0.,0.,-1.));
#1166=DIRECTION('',(0.,0.,1.));
#1167=DIRECTION('',(0.,0.,-1.));
#1168=DIRECTION('',(0.,1.,0.));
#1169=DIRECTION('center_axis',(0.,0.,1.));
#1170=DIRECTION('ref_axis',(1.,0.,0.));
#1171=DIRECTION('',(-1.,0.,0.));
#1172=DIRECTION('',(1.,0.,0.));
#1173=DIRECTION('center_axis',(0.,1.,0.));
#1174=DIRECTION('ref_axis',(0.,0.,1.));
#1175=DIRECTION('center_axis',(0.,1.,0.));
#1176=DIRECTION('ref_axis',(-1.,0.,0.));
#1177=DIRECTION('center_axis',(9.49296595014334E-18,2.6081709591672E-17,
1.));
#1178=DIRECTION('ref_axis',(-0.422618261740701,0.906307787036649,0.));
#1179=DIRECTION('center_axis',(-9.49296595014384E-18,-2.60817095916718E-17,
-1.));
#1180=DIRECTION('ref_axis',(-0.422618261740701,0.906307787036649,0.));
#1181=DIRECTION('',(-9.49296595014334E-18,-2.6081709591672E-17,-1.));
#1182=DIRECTION('center_axis',(9.49296595014383E-18,2.60817095916718E-17,
1.));
#1183=DIRECTION('ref_axis',(-0.422618261740701,0.906307787036649,0.));
#1184=DIRECTION('',(9.49296595014334E-18,2.6081709591672E-17,1.));
#1185=DIRECTION('center_axis',(0.342020143325669,0.939692620785908,-2.77555756156289E-17));
#1186=DIRECTION('ref_axis',(0.,2.95368666324267E-17,1.));
#1187=DIRECTION('',(0.939692620785908,-0.342020143325669,-1.44782572551304E-33));
#1188=DIRECTION('',(1.54074395550979E-33,0.,-1.));
#1189=DIRECTION('',(-0.939692620785909,0.342020143325669,1.44782572551304E-33));
#1190=DIRECTION('center_axis',(9.49296595014384E-18,2.60817095916718E-17,
1.));
#1191=DIRECTION('ref_axis',(0.939692620785908,-0.342020143325669,0.));
#1192=DIRECTION('',(0.342020143325669,0.939692620785908,-2.77555756156289E-17));
#1193=DIRECTION('',(-0.939692620785908,0.342020143325669,0.));
#1194=DIRECTION('',(0.342020143325669,0.939692620785908,-2.77555756156289E-17));
#1195=DIRECTION('center_axis',(-0.939692620785908,0.342020143325669,-5.42341872339446E-31));
#1196=DIRECTION('ref_axis',(2.90722082223155E-16,7.98752356244949E-16,1.));
#1197=DIRECTION('',(0.342020143325669,0.939692620785908,-2.77555756156289E-17));
#1198=DIRECTION('',(-2.90722082223155E-16,-7.98752356244949E-16,-1.));
#1199=DIRECTION('center_axis',(-9.49296595014383E-18,-2.60817095916718E-17,
-1.));
#1200=DIRECTION('ref_axis',(-0.939692620785909,0.342020143325669,0.));
#1201=DIRECTION('',(0.342020143325669,0.939692620785908,-2.77555756156289E-17));
#1202=DIRECTION('',(0.939692620785909,-0.342020143325669,0.));
#1203=DIRECTION('center_axis',(0.939692620785908,-0.342020143325669,0.));
#1204=DIRECTION('ref_axis',(0.,0.,-1.));
#1205=DIRECTION('',(0.,0.,1.));
#1206=DIRECTION('center_axis',(0.342020143325669,0.939692620785908,-1.73472347597681E-17));
#1207=DIRECTION('ref_axis',(-5.9331037188399E-18,-1.63010684947949E-17,
-1.));
#1208=DIRECTION('center_axis',(5.0963465538059E-31,-1.85491844909049E-31,
1.));
#1209=DIRECTION('ref_axis',(-0.422618261740697,0.906307787036651,0.));
#1210=DIRECTION('center_axis',(0.,0.,-1.));
#1211=DIRECTION('ref_axis',(-0.422618261740697,0.906307787036651,0.));
#1212=DIRECTION('',(-5.0963465538059E-31,1.85491844909049E-31,-1.));
#1213=DIRECTION('center_axis',(0.,0.,1.));
#1214=DIRECTION('ref_axis',(-0.422618261740697,0.906307787036651,0.));
#1215=DIRECTION('',(5.0963465538059E-31,-1.85491844909049E-31,1.));
#1216=DIRECTION('center_axis',(0.342020143325669,0.939692620785908,0.));
#1217=DIRECTION('ref_axis',(0.,0.,1.));
#1218=DIRECTION('',(0.939692620785909,-0.342020143325669,0.));
#1219=DIRECTION('',(0.,0.,-1.));
#1220=DIRECTION('',(-0.939692620785908,0.342020143325669,0.));
#1221=DIRECTION('center_axis',(0.,0.,1.));
#1222=DIRECTION('ref_axis',(0.939692620785909,-0.342020143325669,0.));
#1223=DIRECTION('',(0.342020143325669,0.939692620785908,0.));
#1224=DIRECTION('',(0.939692620785909,-0.342020143325669,0.));
#1225=DIRECTION('',(0.342020143325669,0.939692620785908,0.));
#1226=DIRECTION('center_axis',(0.939692620785908,-0.342020143325669,0.));
#1227=DIRECTION('ref_axis',(0.,0.,-1.));
#1228=DIRECTION('',(0.,0.,-1.));
#1229=DIRECTION('',(0.342020143325669,0.939692620785908,0.));
#1230=DIRECTION('center_axis',(-0.939692620785908,0.342020143325669,5.42341872339446E-31));
#1231=DIRECTION('ref_axis',(-2.78855874785476E-16,-7.66150219255362E-16,
1.));
#1232=DIRECTION('',(0.342020143325669,0.939692620785908,0.));
#1233=DIRECTION('',(-2.78855874785476E-16,-7.66150219255362E-16,1.));
#1234=DIRECTION('center_axis',(0.,0.,-1.));
#1235=DIRECTION('ref_axis',(-0.939692620785908,0.342020143325669,0.));
#1236=DIRECTION('',(-0.939692620785908,0.342020143325669,0.));
#1237=DIRECTION('center_axis',(0.342020143325669,0.939692620785908,-1.73472347597681E-17));
#1238=DIRECTION('ref_axis',(-5.9331037188399E-18,-1.63010684947949E-17,
-1.));
#1239=CARTESIAN_POINT('',(0.,0.,0.));
#1240=CARTESIAN_POINT('Origin',(-201.954046154371,56.0127509926272,-414.554843481969));
#1241=CARTESIAN_POINT('',(-191.954046154371,112.512750992627,-414.554843481969));
#1242=CARTESIAN_POINT('',(-201.954046154371,112.512750992627,-404.554843481969));
#1243=CARTESIAN_POINT('Origin',(-201.954046154371,112.512750992627,-414.554843481969));
#1244=CARTESIAN_POINT('',(-201.954046154371,57.5127509926272,-404.554843481969));
#1245=CARTESIAN_POINT('',(-201.954046154371,56.0127509926272,-404.554843481969));
#1246=CARTESIAN_POINT('',(-191.954046154371,57.5127509926272,-414.554843481969));
#1247=CARTESIAN_POINT('Origin',(-201.954046154371,57.5127509926272,-414.554843481969));
#1248=CARTESIAN_POINT('',(-191.954046154371,56.0127509926272,-414.554843481969));
#1249=CARTESIAN_POINT('Origin',(-191.954046154371,54.5127509926272,-334.554843481969));
#1250=CARTESIAN_POINT('',(-191.954046675912,57.5127509926272,-369.554844003509));
#1251=CARTESIAN_POINT('',(-191.954046154371,57.5127509926272,-494.554843481969));
#1252=CARTESIAN_POINT('',(-191.954046675912,54.5127509926272,-369.554844003509));
#1253=CARTESIAN_POINT('',(-191.954046154371,57.5127509926272,-369.554844003509));
#1254=CARTESIAN_POINT('',(-191.954046154371,54.5127509926272,-494.554843481969));
#1255=CARTESIAN_POINT('',(-191.954046154371,54.5127509926272,-494.554843481969));
#1256=CARTESIAN_POINT('',(-191.954046154371,112.512750992627,-494.554843481969));
#1257=CARTESIAN_POINT('',(-191.954046154371,54.5127509926272,-494.554843481969));
#1258=CARTESIAN_POINT('',(-191.954046154371,112.512750992627,-494.554843481969));
#1259=CARTESIAN_POINT('Origin',(-203.954046184174,57.5127509926272,-416.554844554852));
#1260=CARTESIAN_POINT('',(-203.954046184174,57.5127509926272,-406.554844554852));
#1261=CARTESIAN_POINT('',(-193.954046184174,57.5127509926272,-416.554844554852));
#1262=CARTESIAN_POINT('Origin',(-203.954046184174,57.5127509926272,-416.554844554852));
#1263=CARTESIAN_POINT('',(-203.954046184174,112.512750992627,-406.554844554852));
#1264=CARTESIAN_POINT('',(-203.954046184174,57.5127509926272,-406.554844554852));
#1265=CARTESIAN_POINT('',(-193.954046184174,112.512750992627,-416.554844554852));
#1266=CARTESIAN_POINT('Origin',(-203.954046184174,112.512750992627,-416.554844554852));
#1267=CARTESIAN_POINT('',(-193.954046184174,57.5127509926272,-416.554844554852));
#1268=CARTESIAN_POINT('Origin',(-193.954046184174,57.5127509926272,-492.554845836352));
#1269=CARTESIAN_POINT('',(-193.954046184174,112.512750992627,-492.554845836352));
#1270=CARTESIAN_POINT('',(-193.954046184174,112.512750992627,-492.554845836352));
#1271=CARTESIAN_POINT('',(-193.954046184174,57.5127509926272,-492.554845836352));
#1272=CARTESIAN_POINT('',(-193.954046184174,57.5127509926272,-492.554845836352));
#1273=CARTESIAN_POINT('',(-193.954046184174,57.5127509926272,-453.55484465916));
#1274=CARTESIAN_POINT('Origin',(-226.954046675912,62.5127509926272,-369.554844003509));
#1275=CARTESIAN_POINT('',(-194.454046675912,62.5127509926272,-369.554844003509));
#1276=CARTESIAN_POINT('',(-226.954046675912,62.5127509926272,-402.054844003509));
#1277=CARTESIAN_POINT('Origin',(-226.954046675912,62.5127509926272,-369.554844003509));
#1278=CARTESIAN_POINT('',(-226.954046675912,57.5127509926272,-397.054844003509));
#1279=CARTESIAN_POINT('Origin',(-226.954046675912,62.5127509926272,-397.054844003509));
#1280=CARTESIAN_POINT('Origin',(-226.954046675912,57.5127509926272,-369.554844003509));
#1281=CARTESIAN_POINT('Origin',(-226.954046675912,62.5127509926272,-369.554844003509));
#1282=CARTESIAN_POINT('Origin',(-226.954046675912,57.5127509926272,-369.554844003509));
#1283=CARTESIAN_POINT('',(-194.454046675912,135.512750992627,-369.554844003509));
#1284=CARTESIAN_POINT('',(-226.954046675912,135.512750992627,-337.054844003509));
#1285=CARTESIAN_POINT('Origin',(-226.954046675912,135.512750992627,-369.554844003509));
#1286=CARTESIAN_POINT('',(-194.454046675912,57.5127509926272,-369.554844003509));
#1287=CARTESIAN_POINT('Origin',(-226.954046675912,135.512750992627,-369.554844003509));
#1288=CARTESIAN_POINT('Origin',(-241.954046154371,57.5127509926272,-414.554843481969));
#1289=CARTESIAN_POINT('Origin',(-241.954046154371,54.5127509926272,-414.554843481969));
#1290=CARTESIAN_POINT('',(-226.954046675912,54.5127509926272,-334.554843481969));
#1291=CARTESIAN_POINT('Origin',(-226.954046675912,54.5127509926272,-369.554844003509));
#1292=CARTESIAN_POINT('',(-291.954046154371,54.5127509926272,-334.554843481969));
#1293=CARTESIAN_POINT('',(-261.954046154371,54.5127509926272,-334.554843481969));
#1294=CARTESIAN_POINT('',(-291.954046154371,54.5127509926272,-494.554843481969));
#1295=CARTESIAN_POINT('',(-291.954046154371,54.5127509926272,-334.554843481969));
#1296=CARTESIAN_POINT('',(-291.954046154371,54.5127509926272,-494.554843481969));
#1297=CARTESIAN_POINT('Origin',(-291.954046154371,54.5127509926272,-334.554843481969));
#1298=CARTESIAN_POINT('',(-226.954046675912,57.5127509926272,-334.554843481969));
#1299=CARTESIAN_POINT('',(-226.954046675912,57.5127509926272,-334.554843481969));
#1300=CARTESIAN_POINT('',(-261.954046154371,57.5127509926272,-334.554843481969));
#1301=CARTESIAN_POINT('',(-261.954046154371,57.5127509926272,-334.554843481969));
#1302=CARTESIAN_POINT('',(-261.954046154371,112.462303111077,-334.554843481969));
#1303=CARTESIAN_POINT('',(-261.954046154371,57.5127509926272,-334.554843481969));
#1304=CARTESIAN_POINT('',(-280.927987065499,60.3318288996884,-334.554843481969));
#1305=CARTESIAN_POINT('',(-273.021026353135,82.0560249134227,-334.554843481969));
#1306=CARTESIAN_POINT('',(-284.773125357834,58.5388114673077,-334.554843481969));
#1307=CARTESIAN_POINT('Origin',(-283.747064927857,61.3578893296654,-334.554843481969));
#1308=CARTESIAN_POINT('',(-291.954047143764,61.15245325198,-334.554843481969));
#1309=CARTESIAN_POINT('',(-290.106457716239,60.479985695216,-334.554843481969));
#1310=CARTESIAN_POINT('',(-291.954046154371,54.5127509926272,-334.554843481969));
#1311=CARTESIAN_POINT('Origin',(-226.954046675912,136.189875337095,-369.554844003509));
#1312=CARTESIAN_POINT('',(-261.954046675912,136.189875337095,-369.554844003509));
#1313=CARTESIAN_POINT('',(-191.954046675912,136.189875337095,-369.554844003509));
#1314=CARTESIAN_POINT('Origin',(-226.954046675912,136.189875337095,-369.554844003509));
#1315=CARTESIAN_POINT('Origin',(-226.954046675912,136.189875337095,-369.554844003509));
#1316=CARTESIAN_POINT('',(-261.454046675912,137.512750992627,-369.554844003509));
#1317=CARTESIAN_POINT('Origin',(-259.954046675912,136.189875337095,-369.554844003509));
#1318=CARTESIAN_POINT('',(-226.954046675912,137.512750992627,-335.054844003509));
#1319=CARTESIAN_POINT('Origin',(-226.954046675912,137.512750992627,-369.554844003509));
#1320=CARTESIAN_POINT('Origin',(-226.954046675912,137.512750992627,-369.554844003509));
#1321=CARTESIAN_POINT('Origin',(-226.954046675912,57.5127509926272,-369.554844003509));
#1322=CARTESIAN_POINT('',(-191.954046675912,57.5127509926272,-369.554844003509));
#1323=CARTESIAN_POINT('',(-226.954046675912,57.5127509926272,-404.554843481969));
#1324=CARTESIAN_POINT('Origin',(-226.954046675912,57.5127509926272,-369.554844003509));
#1325=CARTESIAN_POINT('',(-226.954046675912,112.512750992627,-404.554843481969));
#1326=CARTESIAN_POINT('',(-226.954046675912,57.5127509926272,-404.554843481969));
#1327=CARTESIAN_POINT('',(-261.954046154371,57.5127509926272,-369.554844003509));
#1328=CARTESIAN_POINT('Origin',(-226.954046675912,57.5127509926272,-369.554844003509));
#1329=CARTESIAN_POINT('',(-261.954046154371,112.462303111077,-369.554844003509));
#1330=CARTESIAN_POINT('',(-261.954046154371,57.5127509926272,-369.554844003509));
#1331=CARTESIAN_POINT('Origin',(-226.954046675912,57.5127509926272,-369.554844003509));
#1332=CARTESIAN_POINT('Origin',(-226.954046675912,135.512750992627,-369.554844003509));
#1333=CARTESIAN_POINT('Origin',(-226.954046675912,135.512750992627,-335.054844003509));
#1334=CARTESIAN_POINT('Origin',(-283.747064927857,61.3578893296654,-334.554843481969));
#1335=CARTESIAN_POINT('',(-280.927987065499,60.3318288996884,-494.554843481969));
#1336=CARTESIAN_POINT('',(-280.927987065499,60.3318288996884,-334.554843481969));
#1337=CARTESIAN_POINT('',(-284.773125357834,58.5388114673077,-494.554843481969));
#1338=CARTESIAN_POINT('Origin',(-283.747064927857,61.3578893296654,-494.554843481969));
#1339=CARTESIAN_POINT('',(-284.773125357834,58.5388114673077,-334.554843481969));
#1340=CARTESIAN_POINT('Origin',(-261.954046154371,112.462303111077,-334.554843481969));
#1341=CARTESIAN_POINT('',(-261.954046154371,112.462303111077,-334.554843481969));
#1342=CARTESIAN_POINT('',(-261.954046154371,112.462303111077,-404.554843481969));
#1343=CARTESIAN_POINT('',(-261.954046154371,112.462303111077,-334.554843481969));
#1344=CARTESIAN_POINT('',(-261.954047197453,112.462300245235,-406.554844554852));
#1345=CARTESIAN_POINT('',(-261.954046154371,112.462303111077,-334.554843481969));
#1346=CARTESIAN_POINT('',(-261.954047197453,112.462300245235,-492.554845836352));
#1347=CARTESIAN_POINT('',(-261.954046154371,112.462303111077,-334.554843481969));
#1348=CARTESIAN_POINT('',(-261.954046154371,112.462303111077,-494.554843481969));
#1349=CARTESIAN_POINT('',(-261.954046154371,112.462303111077,-334.554843481969));
#1350=CARTESIAN_POINT('',(-267.172137431109,98.1257151555862,-494.554843481969));
#1351=CARTESIAN_POINT('Origin',(-261.954046154371,57.5127509926272,-404.554843481969));
#1352=CARTESIAN_POINT('',(-191.954046154371,112.512750992627,-404.554843481969));
#1353=CARTESIAN_POINT('',(-226.954046675912,57.5127509926272,-404.554843481969));
#1354=CARTESIAN_POINT('',(-251.954046154371,57.5127509926272,-404.554843481969));
#1355=CARTESIAN_POINT('Origin',(-261.954046154371,57.5127509926272,-406.554844554852));
#1356=CARTESIAN_POINT('',(-261.954046154371,112.512750992627,-404.554843481969));
#1357=CARTESIAN_POINT('',(-261.954046154371,57.5127509926272,-404.554843481969));
#1358=CARTESIAN_POINT('',(-261.954047197453,112.512750992627,-406.554844554852));
#1359=CARTESIAN_POINT('',(-261.954046154371,112.512750992627,-404.554843481969));
#1360=CARTESIAN_POINT('',(-261.954047197453,57.5127509926272,-406.554844554852));
#1361=CARTESIAN_POINT('Origin',(-261.954046154371,57.5127509926272,-494.554843481969));
#1362=CARTESIAN_POINT('',(-261.954047197453,112.512750992627,-492.554845836352));
#1363=CARTESIAN_POINT('',(-261.954047197453,57.5127509926272,-492.554845836352));
#1364=CARTESIAN_POINT('',(-261.954046154371,112.512750992627,-494.554843481969));
#1365=CARTESIAN_POINT('',(-261.954046154371,112.512750992627,-404.554843481969));
#1366=CARTESIAN_POINT('',(-261.954046154371,57.5127509926272,-494.554843481969));
#1367=CARTESIAN_POINT('Origin',(-261.954046154371,57.5127509926272,-404.554843481969));
#1368=CARTESIAN_POINT('',(-191.954046154371,112.512750992627,-404.554843481969));
#1369=CARTESIAN_POINT('',(-261.954046154371,57.5127509926272,-404.554843481969));
#1370=CARTESIAN_POINT('',(-261.954046154371,57.5127509926272,-404.554843481969));
#1371=CARTESIAN_POINT('',(-251.954046154371,57.5127509926272,-404.554843481969));
#1372=CARTESIAN_POINT('Origin',(-193.954046184174,57.5127509926272,-406.554844554852));
#1373=CARTESIAN_POINT('',(-261.954047197453,57.5127509926272,-406.554844554852));
#1374=CARTESIAN_POINT('',(-217.954046169272,57.5127509926272,-406.554844554852));
#1375=CARTESIAN_POINT('',(-261.954046154371,57.5127509926272,-406.554844554852));
#1376=CARTESIAN_POINT('',(-193.954046184174,112.512750992627,-406.554844554852));
#1377=CARTESIAN_POINT('Origin',(-261.954047197453,57.5127509926272,-492.554845836352));
#1378=CARTESIAN_POINT('',(-261.954047197453,57.5127509926272,-492.554845836352));
#1379=CARTESIAN_POINT('',(-251.954046675912,57.5127509926272,-492.554845836352));
#1380=CARTESIAN_POINT('',(-261.954047197453,112.512750992627,-492.554845836352));
#1381=CARTESIAN_POINT('',(-261.954046154371,57.5127509926272,-492.554845836352));
#1382=CARTESIAN_POINT('Origin',(-226.954046675912,112.512750992627,-449.554843481969));
#1383=CARTESIAN_POINT('',(-261.954046154371,112.512750992627,-494.554843481969));
#1384=CARTESIAN_POINT('Origin',(-241.954046154371,57.5127509926272,-414.554843481969));
#1385=CARTESIAN_POINT('',(-261.954046154371,57.5127509926272,-374.554843481969));
#1386=CARTESIAN_POINT('Origin',(-241.954046154371,57.5127509926272,-414.554843481969));
#1387=CARTESIAN_POINT('Origin',(-261.954046154371,57.5127509926272,-334.554843481969));
#1388=CARTESIAN_POINT('',(-261.954046154371,57.5127509926272,-369.554844003509));
#1389=CARTESIAN_POINT('Origin',(-261.954046154371,57.5127509926272,-334.554843481969));
#1390=CARTESIAN_POINT('',(-261.954046154371,57.5127509926272,-374.554843481969));
#1391=CARTESIAN_POINT('Origin',(-241.954046154371,57.5127509926272,-414.554843481969));
#1392=CARTESIAN_POINT('',(-261.954046154371,57.5127509926272,-374.554843481969));
#1393=CARTESIAN_POINT('Origin',(-241.954046154371,57.5127509926272,-414.554843481969));
#1394=CARTESIAN_POINT('Origin',(-191.954046154371,54.5127509926272,-494.554843481969));
#1395=CARTESIAN_POINT('',(-291.954047143764,61.15245325198,-494.554843481969));
#1396=CARTESIAN_POINT('',(-281.954047495476,57.5127510373307,-494.554843481969));
#1397=CARTESIAN_POINT('',(-291.954046154371,54.5127509926272,-494.554843481969));
#1398=CARTESIAN_POINT('Origin',(-290.39282833453,60.5842160762422,-334.554843481969));
#1399=CARTESIAN_POINT('',(-291.954046154371,61.1524528918705,-414.554843481969));
#1400=CARTESIAN_POINT('Origin',(-261.954046154371,57.5127509926272,-334.554843481969));
#1401=CARTESIAN_POINT('Origin',(-291.954046154371,54.5127509926272,-494.554843481969));
#1402=CARTESIAN_POINT('Origin',(-261.954046154371,57.5127509926272,-484.554843481969));
#1403=CARTESIAN_POINT('',(-261.954046154371,57.5127509926272,-482.554843481969));
#1404=CARTESIAN_POINT('',(-261.954046154371,57.5127509926272,-484.554843481969));
#1405=CARTESIAN_POINT('',(-261.954046154371,57.5127509926272,-482.554843481969));
#1406=CARTESIAN_POINT('',(-261.954046154371,97.5127509926272,-482.554843481969));
#1407=CARTESIAN_POINT('',(-261.954046154371,57.5127509926272,-482.554843481969));
#1408=CARTESIAN_POINT('',(-261.954046154371,97.5127509926272,-484.554843481969));
#1409=CARTESIAN_POINT('',(-261.954046154371,97.5127509926272,-482.554843481969));
#1410=CARTESIAN_POINT('',(-261.954046154371,57.5127509926272,-484.554843481969));
#1411=CARTESIAN_POINT('Origin',(-193.954046184174,57.5127509926272,-484.554843481969));
#1412=CARTESIAN_POINT('',(-193.954046184174,57.5127509926272,-484.554843481969));
#1413=CARTESIAN_POINT('',(-261.954046154371,57.5127509926272,-484.554843481969));
#1414=CARTESIAN_POINT('',(-193.954046184174,97.5127509926272,-484.554843481969));
#1415=CARTESIAN_POINT('',(-261.954046154371,97.5127509926272,-484.554843481969));
#1416=CARTESIAN_POINT('',(-193.954046184174,57.5127509926272,-484.554843481969));
#1417=CARTESIAN_POINT('Origin',(-193.954046184174,57.5127509926272,-482.554843481969));
#1418=CARTESIAN_POINT('',(-193.954046184174,57.5127509926272,-482.554843481969));
#1419=CARTESIAN_POINT('',(-193.954046184174,57.5127509926272,-484.554843481969));
#1420=CARTESIAN_POINT('',(-193.954046184174,97.5127509926272,-482.554843481969));
#1421=CARTESIAN_POINT('',(-193.954046184174,97.5127509926272,-484.554843481969));
#1422=CARTESIAN_POINT('',(-193.954046184174,57.5127509926272,-482.554843481969));
#1423=CARTESIAN_POINT('Origin',(-261.954046154371,57.5127509926272,-482.554843481969));
#1424=CARTESIAN_POINT('',(-193.954046184174,57.5127509926272,-482.554843481969));
#1425=CARTESIAN_POINT('',(-193.954046184174,97.5127509926272,-482.554843481969));
#1426=CARTESIAN_POINT('Origin',(-227.954046169272,97.5127509926272,-483.554843481969));
#1427=CARTESIAN_POINT('Origin',(-227.954046169272,57.5127509926272,-483.554843481969));
#1428=CARTESIAN_POINT('Origin',(-285.545483323206,64.1408156392812,-336.054843481969));
#1429=CARTESIAN_POINT('',(-290.243946427136,65.8509163559096,-334.554843481969));
#1430=CARTESIAN_POINT('',(-283.835382606578,68.8392787432108,-334.554843481969));
#1431=CARTESIAN_POINT('Origin',(-285.545483323206,64.1408156392812,-334.554843481969));
#1432=CARTESIAN_POINT('',(-283.835382606578,68.8392787432108,-336.554843481969));
#1433=CARTESIAN_POINT('',(-283.835382606578,68.8392787432108,-336.054843481969));
#1434=CARTESIAN_POINT('',(-290.243946427136,65.8509163559096,-336.554843481969));
#1435=CARTESIAN_POINT('Origin',(-285.545483323206,64.1408156392812,-336.554843481969));
#1436=CARTESIAN_POINT('',(-290.243946427136,65.8509163559096,-336.054843481969));
#1437=CARTESIAN_POINT('Origin',(-283.533845886363,68.7295283525144,-335.554843481969));
#1438=CARTESIAN_POINT('',(-278.533846062219,66.9096772451897,-334.554843481969));
#1439=CARTESIAN_POINT('',(-278.533846062219,66.9096772451897,-334.554843481969));
#1440=CARTESIAN_POINT('',(-278.533846062219,66.9096772451897,-336.554843481969));
#1441=CARTESIAN_POINT('',(-278.533846062219,66.9096772451897,-336.554843481969));
#1442=CARTESIAN_POINT('',(-288.533845710507,70.5493794598391,-336.554843481969));
#1443=CARTESIAN_POINT('Origin',(-291.954047143764,61.15245325198,-334.554843481969));
#1444=CARTESIAN_POINT('',(-291.954047143764,61.15245325198,-334.554843481969));
#1445=CARTESIAN_POINT('',(-291.954047143764,61.15245325198,-334.554843481969));
#1446=CARTESIAN_POINT('',(-281.954047495476,57.5127510373306,-334.554843481969));
#1447=CARTESIAN_POINT('',(-281.954047495476,57.5127510373306,-334.554843481969));
#1448=CARTESIAN_POINT('',(-281.954047495476,57.5127510373306,-334.554843481969));
#1449=CARTESIAN_POINT('Origin',(-291.954047143764,61.15245325198,-336.554843481969));
#1450=CARTESIAN_POINT('',(-291.954047143764,61.15245325198,-336.554843481969));
#1451=CARTESIAN_POINT('',(-291.954047143764,61.15245325198,-336.554843481969));
#1452=CARTESIAN_POINT('',(-291.954047143764,61.15245325198,-334.554843481969));
#1453=CARTESIAN_POINT('Origin',(-281.954047495476,57.5127510373307,-336.554843481969));
#1454=CARTESIAN_POINT('',(-281.954047495476,57.5127510373306,-336.554843481969));
#1455=CARTESIAN_POINT('',(-281.954047495476,57.5127510373306,-336.554843481969));
#1456=CARTESIAN_POINT('',(-291.954047143764,61.15245325198,-336.554843481969));
#1457=CARTESIAN_POINT('Origin',(-281.954047495476,57.5127510373306,-334.554843481969));
#1458=CARTESIAN_POINT('',(-281.954047495476,57.5127510373306,-336.554843481969));
#1459=CARTESIAN_POINT('Origin',(-286.95404731962,59.3326021446554,-335.554843481969));
#1460=CARTESIAN_POINT('Origin',(-285.545483323206,64.1408156392812,-494.054843481969));
#1461=CARTESIAN_POINT('',(-290.243946427136,65.8509163559096,-492.554843481969));
#1462=CARTESIAN_POINT('',(-283.835382606578,68.8392787432108,-492.554843481969));
#1463=CARTESIAN_POINT('Origin',(-285.545483323206,64.1408156392812,-492.554843481969));
#1464=CARTESIAN_POINT('',(-283.835382606578,68.8392787432108,-494.554843481969));
#1465=CARTESIAN_POINT('',(-283.835382606578,68.8392787432108,-494.054843481969));
#1466=CARTESIAN_POINT('',(-290.243946427136,65.8509163559096,-494.554843481969));
#1467=CARTESIAN_POINT('Origin',(-285.545483323206,64.1408156392812,-494.554843481969));
#1468=CARTESIAN_POINT('',(-290.243946427136,65.8509163559096,-494.054843481969));
#1469=CARTESIAN_POINT('Origin',(-283.533845886363,68.7295283525144,-493.554843481969));
#1470=CARTESIAN_POINT('',(-278.533846062219,66.9096772451897,-492.554843481969));
#1471=CARTESIAN_POINT('',(-288.533845710507,70.5493794598391,-492.554843481969));
#1472=CARTESIAN_POINT('',(-278.533846062219,66.9096772451897,-494.554843481969));
#1473=CARTESIAN_POINT('',(-278.533846062219,66.9096772451897,-492.554843481969));
#1474=CARTESIAN_POINT('',(-278.533846062219,66.9096772451897,-494.554843481969));
#1475=CARTESIAN_POINT('Origin',(-291.954047143764,61.15245325198,-492.554843481969));
#1476=CARTESIAN_POINT('',(-291.954047143764,61.15245325198,-492.554843481969));
#1477=CARTESIAN_POINT('',(-291.954047143764,61.15245325198,-492.554843481969));
#1478=CARTESIAN_POINT('',(-281.954047495476,57.5127510373307,-492.554843481969));
#1479=CARTESIAN_POINT('',(-291.954047143764,61.15245325198,-492.554843481969));
#1480=CARTESIAN_POINT('',(-281.954047495476,57.5127510373307,-492.554843481969));
#1481=CARTESIAN_POINT('Origin',(-281.954047495476,57.5127510373307,-492.554843481969));
#1482=CARTESIAN_POINT('',(-281.954047495476,57.5127510373307,-494.554843481969));
#1483=CARTESIAN_POINT('',(-281.954047495476,57.5127510373307,-492.554843481969));
#1484=CARTESIAN_POINT('',(-281.954047495476,57.5127510373307,-494.554843481969));
#1485=CARTESIAN_POINT('Origin',(-291.954047143764,61.15245325198,-494.554843481969));
#1486=CARTESIAN_POINT('',(-291.954047143764,61.15245325198,-494.554843481969));
#1487=CARTESIAN_POINT('',(-291.954047143764,61.15245325198,-494.554843481969));
#1488=CARTESIAN_POINT('',(-291.954047143764,61.15245325198,-494.554843481969));
#1489=CARTESIAN_POINT('Origin',(-281.954047495476,57.5127510373307,-494.554843481969));
#1490=CARTESIAN_POINT('',(-281.954047495476,57.5127510373307,-494.554843481969));
#1491=CARTESIAN_POINT('Origin',(-286.95404731962,59.3326021446554,-493.554843481969));
#1492=UNCERTAINTY_MEASURE_WITH_UNIT(LENGTH_MEASURE(0.01),#1496,
'DISTANCE_ACCURACY_VALUE',
'Maximum model space distance between geometric entities at asserted c
onnectivities');
#1493=UNCERTAINTY_MEASURE_WITH_UNIT(LENGTH_MEASURE(0.01),#1496,
'DISTANCE_ACCURACY_VALUE',
'Maximum model space distance between geometric entities at asserted c
onnectivities');
#1494=(
GEOMETRIC_REPRESENTATION_CONTEXT(3)
GLOBAL_UNCERTAINTY_ASSIGNED_CONTEXT((#1492))
GLOBAL_UNIT_ASSIGNED_CONTEXT((#1496,#1498,#1499))
REPRESENTATION_CONTEXT('','3D')
);
#1495=(
GEOMETRIC_REPRESENTATION_CONTEXT(3)
GLOBAL_UNCERTAINTY_ASSIGNED_CONTEXT((#1493))
GLOBAL_UNIT_ASSIGNED_CONTEXT((#1496,#1498,#1499))
REPRESENTATION_CONTEXT('','3D')
);
#1496=(
LENGTH_UNIT()
NAMED_UNIT(*)
SI_UNIT(.MILLI.,.METRE.)
);
#1497=(
LENGTH_UNIT()
NAMED_UNIT(*)
SI_UNIT($,.METRE.)
);
#1498=(
NAMED_UNIT(*)
PLANE_ANGLE_UNIT()
SI_UNIT($,.RADIAN.)
);
#1499=(
NAMED_UNIT(*)
SI_UNIT($,.STERADIAN.)
SOLID_ANGLE_UNIT()
);
#1500=SHAPE_DEFINITION_REPRESENTATION(#1501,#1502);
#1501=PRODUCT_DEFINITION_SHAPE('',$,#1504);
#1502=SHAPE_REPRESENTATION('',(#908),#1494);
#1503=PRODUCT_DEFINITION_CONTEXT('part definition',#1508,'design');
#1504=PRODUCT_DEFINITION('2026-10-07-08-26-27-765','Desk Org',#1505,#1503);
#1505=PRODUCT_DEFINITION_FORMATION('',$,#1510);
#1506=PRODUCT_RELATED_PRODUCT_CATEGORY('Desk Org','Desk Org',(#1510));
#1507=APPLICATION_PROTOCOL_DEFINITION('international standard',
'automotive_design',2009,#1508);
#1508=APPLICATION_CONTEXT(
'Core Data for Automotive Mechanical Design Process');
#1509=PRODUCT_CONTEXT('part definition',#1508,'mechanical');
#1510=PRODUCT('2026-10-07-08-26-27-765','Desk Org',$,(#1509));
#1511=PRESENTATION_STYLE_ASSIGNMENT((#1512));
#1512=SURFACE_STYLE_USAGE(.BOTH.,#1513);
#1513=SURFACE_SIDE_STYLE('',(#1514));
#1514=SURFACE_STYLE_FILL_AREA(#1515);
#1515=FILL_AREA_STYLE('Steel - Satin',(#1516));
#1516=FILL_AREA_STYLE_COLOUR('Steel - Satin',#1517);
#1517=COLOUR_RGB('Steel - Satin',0.627450980392157,0.627450980392157,0.627450980392157);
ENDSEC;
END-ISO-10303-21;
